<svg xmlns="http://www.w3.org/2000/svg" width="300.23" height="300.23" viewBox="0 0 300.23 300.23"><circle cx="150.12" cy="150.12" r="149.62" fill="none" stroke="#000" stroke-miterlimit="10"/><circle cx="150.12" cy="150.12" r="149.62"/><path d="M7235.74,7154.11a50.51,50.51,0,0,1,9.88,17.5c3.9,11.35,4.82,23,3.94,35-.91,12.23-2.76,24.23-7.65,35.57-3.67,8.48-8.24,16.39-15.88,22a23.5,23.5,0,0,1-6.88,3.3c-3.48,1.05-6.38-.45-8.11-3.68a12.37,12.37,0,0,1,.2-12.83c3.69-6.11,7.65-12.05,11.58-18,15.63-23.69,19.42-49.41,13.26-76.86C7235.94,7155.39,7235.85,7154.75,7235.74,7154.11Z" transform="translate(-6987 -7038.3)" fill="#6fcee0"/><path d="M7214.69,7275.43c-2.93,4-5.69,8.19-8.83,12-9.26,11.37-20.19,20.47-34.72,24.32-5.57,1.48-11.31,2.36-16.85.27a20.36,20.36,0,0,1-7.55-4.84c-4.81-5.15-3.19-12.47,3.41-14.88a31.3,31.3,0,0,1,11.42-1.68c15.64.46,30.57-1.87,44.22-10,2.89-1.72,5.58-3.79,8.37-5.7Z" transform="translate(-6987 -7038.3)" fill="#6fcee0"/><path d="M7207.66,7246.27c-3.05,4.75-5.84,9.7-9.21,14.21-8.2,11-18.54,19.29-32.11,22.44a69.23,69.23,0,0,1-17.21,1.27c-2.5-.07-5.25-1.74-7.35-3.37a9.35,9.35,0,0,1-3.52-10.46,9.12,9.12,0,0,1,8.16-6.65,51.46,51.46,0,0,1,11.37.05c12.82,1.35,24.6-1.75,35.53-8.21,4.8-2.83,9.2-6.35,13.78-9.55Z" transform="translate(-6987 -7038.3)" fill="#6fcee0"/><path d="M7202.48,7193.05c-2.21,7.75-4,14.94-6.33,21.95-3.88,11.72-8.89,22.92-17.37,32.18a32.54,32.54,0,0,1-16,10.08c-3.68.95-7.11.58-9.74-2.29-2.79-3-2.87-6.73-1.44-10.44,2.06-5.37,6.21-8.55,11.48-10.36a50.89,50.89,0,0,0,19.85-12.58,87.21,87.21,0,0,0,16.31-23.65q1-2.05,2-4.09C7201.38,7193.71,7201.6,7193.64,7202.48,7193.05Z" transform="translate(-6987 -7038.3)" fill="#6fcee0"/><path d="M7222.58,7157.72c1.42,6.86,3.39,13.66,4.17,20.59,2,18-1.88,34.86-10.49,50.68-2.4,4.4-5.4,8.36-10.27,10.33-6.11,2.47-11.26-1.35-9.87-7.74a23.41,23.41,0,0,1,4.63-9.61c14.94-18.18,21-39.16,20.46-62.38a10.84,10.84,0,0,1,0-1.14,1.66,1.66,0,0,1,.24-.48Z" transform="translate(-6987 -7038.3)" fill="#6fcee0"/><path d="M7192.17,7192c-4.79,12.06-10.29,23.6-22,30.4a21.75,21.75,0,0,1-9.44,2.64c-5.08.3-7.9-4.09-6.31-8.94a11.36,11.36,0,0,1,8.13-7.71c7.7-2.27,15.1-5.25,21.65-10C7187,7196.41,7189.53,7194.14,7192.17,7192Z" transform="translate(-6987 -7038.3)" fill="#6fcee0"/><path d="M7174.23,7144.67c7.77,9,15.61,17.85,17.65,29.89.5,3-.35,6.43-1.49,9.31a7.16,7.16,0,0,1-8,4.09c-3.24-.77-5.33-3.55-5.53-7.43-.42-7.9-.75-15.8-1.27-23.68C7175.29,7152.78,7174.68,7148.73,7174.23,7144.67Z" transform="translate(-6987 -7038.3)" fill="#6fcee0"/><path d="M7192.62,7144.37c8.73,7.25,15.72,15.57,18.32,26.81a12.58,12.58,0,0,1-.56,6.67c-1.33,3.76-5.17,4.52-8,1.68a11.8,11.8,0,0,1-3-5c-2.49-9.76-4.72-19.58-7-29.39C7192.29,7145,7192.44,7144.79,7192.62,7144.37Z" transform="translate(-6987 -7038.3)" fill="#6fcee0"/><path d="M7168,7166.11c1.25,4.92,2.54,9.25,3.4,13.66a115.46,115.46,0,0,1,1.77,13.23,9.11,9.11,0,0,1-3.49,7.78,4.74,4.74,0,0,1-7.76-1.71,9.6,9.6,0,0,1-.87-3.85c.08-9.62,2.44-18.78,5.87-27.7A9.22,9.22,0,0,1,7168,7166.11Z" transform="translate(-6987 -7038.3)" fill="#6fcee0"/><path d="M7152.19,7086.72l-3.76,5.1c-3.51-3.14-2.51-7.17-2.06-10.93.57-4.81,1.6-9.56,2.31-14.36.94-6.37-1.71-10.86-7.21-12.44,6.73-1.41,6.74-1.43,12.48,1.57,3.3,1.72,6.17,1,9-1.17a8.3,8.3,0,0,1,4.18-2c1-.05,2.12,1.38,3.19,2.14-.8,1.06-1.45,2.8-2.43,3-1.75.39-3.71-.28-5.58-.25-1.38,0-3.89-1.93-3.65,1.71a.53.53,0,0,1-.33.39c-4.41.09-4.2,4-5.44,6.66a56.11,56.11,0,0,0-3.21,8.21A12.56,12.56,0,0,0,7152.19,7086.72Z" transform="translate(-6987 -7038.3)" fill="#6fcee0"/><path d="M7195.39,7127.59c7.07,3.14,13.13,7.38,17.42,13.76a21.37,21.37,0,0,1,2.32,4.87,11.85,11.85,0,0,1,.65,3.92c0,2-.23,4.24-2.5,5s-4-.81-4.93-2.56C7203.92,7144.32,7199.69,7135.94,7195.39,7127.59Z" transform="translate(-6987 -7038.3)" fill="#6fcee0"/><path d="M7207.71,7124.18c8.92,3.65,17.48,7.78,21.34,17.27a12.58,12.58,0,0,1,.19,7.15c-.29,1.23-2.31,2.72-3.66,2.84-1.18.12-2.65-1.39-3.75-2.44a4.79,4.79,0,0,1-1.1-2.59c-1.5-8.65-6.28-15.39-12.29-21.44C7208.18,7124.72,7208,7124.45,7207.71,7124.18Z" transform="translate(-6987 -7038.3)" fill="#6fcee0"/><path d="M7162.45,7134.34c3.57,7.3,6.75,14.38,5.84,22.58a4.3,4.3,0,0,1-.28,1.39c-.82,1.8-1.53,4.06-4.07,3.61-2.39-.42-2.52-2.75-2.46-4.57.14-4.17.73-8.32.94-12.48C7162.59,7141.5,7162.45,7138.12,7162.45,7134.34Z" transform="translate(-6987 -7038.3)" fill="#6fcee0"/><path d="M7177.48,7131c2.76,3.56,5.58,7.06,8.21,10.71a5.25,5.25,0,0,1,.89,3.49,3.93,3.93,0,0,1-2,2.66c-.63.25-2.33-.66-2.64-1.42-2-4.86-3.79-9.83-5.64-14.75Z" transform="translate(-6987 -7038.3)" fill="#6fcee0"/><path d="M7164.83,7123.8a22.78,22.78,0,0,1,8.28,11.71c.31,1.06-.85,2.54-1.33,3.83-1.22-.7-3.13-1.13-3.53-2.15-1.67-4.25-2.88-8.68-4.25-13Z" transform="translate(-6987 -7038.3)" fill="#6fcee0"/><path d="M7184.45,7109.83c4.54,2,9,4.3,12.07,8.43.58.78.3,2.2.42,3.33-1.2-.08-2.85.31-3.51-.32-3.41-3.34-6.58-7-9.83-10.46Z" transform="translate(-6987 -7038.3)" fill="#6fcee0"/><path d="M7163.66,7061.42c2.11.28,4.65.26,6.92,1,1.45.49,3.22,2,3.52,3.32.25,1.08-1.17,3.06-2.37,3.85-1.85,1.22-3.56.39-4.6-1.7C7166,7065.67,7164.77,7063.48,7163.66,7061.42Z" transform="translate(-6987 -7038.3)" fill="#6fcee0"/><path d="M7162.45,7068.08c.59,1.08,1.12,2.2,1.78,3.23,1.37,2.14,3.17,3.48,5.9,3.18,1.81-.21,3.79.07,4,2.18.11,1.24-.76,3.35-1.71,3.71-1.28.48-3.85.23-4.48-.68-2.43-3.51-4.31-7.4-6.39-11.16Z" transform="translate(-6987 -7038.3)" fill="#6fcee0"/><path d="M7184.47,7125.47c4,2,7.24,4.7,9.08,8.69.45.95-.21,2.41-.36,3.64-1.09-.3-2.48-.27-3.22-1C7186.73,7133.84,7185.28,7129.85,7184.47,7125.47Z" transform="translate(-6987 -7038.3)" fill="#6fcee0"/><path d="M7170.46,7115.27c2.86,2.83,5.88,5.53,8.48,8.58.69.81.11,2.71.11,4.11-1.32-.37-3.26-.31-3.86-1.18-2.26-3.31-4.09-6.92-6.08-10.42Z" transform="translate(-6987 -7038.3)" fill="#6fcee0"/><path d="M7154,7111.61c2.19,3.6,4.53,7.13,6.45,10.87.45.87-.52,2.47-.84,3.73-1.14-.58-2.82-.87-3.34-1.8-2.15-3.83-2.74-8.12-3.15-12.4Z" transform="translate(-6987 -7038.3)" fill="#6fcee0"/><path d="M7172.09,7096.9c4.39,1.87,8.83,3.63,13.11,5.71.84.41,1.07,2.08,1.58,3.16-1.21.1-2.74.72-3.59.21-4-2.42-7.84-5.15-11.74-7.76Z" transform="translate(-6987 -7038.3)" fill="#6fcee0"/><path d="M7175.55,7109.64c3,2.36,6.1,4.59,8.88,7.19.63.59.11,2.44.11,3.71-1.19-.17-2.92.1-3.48-.59-2.37-2.91-4.39-6.11-6.54-9.2Z" transform="translate(-6987 -7038.3)" fill="#6fcee0"/><path d="M7193.08,7108.81c4.14,1.46,8.24,2.82,10.82,6.65.48.71.29,1.86.4,2.81-.94-.11-2.24.15-2.77-.37C7198.67,7115.05,7196,7112,7193.08,7108.81Z" transform="translate(-6987 -7038.3)" fill="#6fcee0"/><path d="M7159.68,7108a86.49,86.49,0,0,1,5.86,7.43c.53.82-.23,2.47-.4,3.75-1-.53-2.5-.82-2.89-1.63-1.37-2.92-2.37-6-3.51-9.05Z" transform="translate(-6987 -7038.3)" fill="#6fcee0"/><path d="M7162.86,7103.34a13.58,13.58,0,0,1,7.47,5.1c.5.64.27,1.85.37,2.8-1.06,0-2.62.47-3.08-.05-2-2.25-3.7-4.79-5.51-7.23Z" transform="translate(-6987 -7038.3)" fill="#6fcee0"/><path d="M7151.84,7096.18a66.46,66.46,0,0,1,4,7c.38.89-.43,2.29-.69,3.46-.8-.76-2-1.38-2.31-2.31-.82-2.53-1.25-5.19-1.83-7.8Z" transform="translate(-6987 -7038.3)" fill="#6fcee0"/><path d="M7158.76,7090.62c2.54,1.32,5.13,2.55,7.56,4,.51.3.44,1.55.63,2.37-.93,0-2.23.43-2.72,0-2-1.83-3.76-3.94-5.6-5.95Z" transform="translate(-6987 -7038.3)" fill="#6fcee0"/><path d="M7147.48,7096.87l3.3,10.62C7146.34,7105.7,7145.14,7101.13,7147.48,7096.87Z" transform="translate(-6987 -7038.3)" fill="#6fcee0"/><path d="M7154.8,7093a70.14,70.14,0,0,1,5.37,4.8c.45.48,0,1.79,0,2.72-.83-.21-2.06-.15-2.44-.68-1.37-2-2.47-4.13-3.66-6.22Z" transform="translate(-6987 -7038.3)" fill="#6fcee0"/><path d="M7167.36,7100.55c3.28.25,5.69.93,7.25,3.17.42.6.13,1.68.17,2.55-.82-.15-1.9,0-2.43-.5C7170.71,7104.3,7169.28,7102.59,7167.36,7100.55Z" transform="translate(-6987 -7038.3)" fill="#6fcee0"/><text transform="translate(47.52 103.43)" font-size="35.24" fill="#6fcee0" font-family="ArialMT, Arial">BLUE</text><text transform="translate(34.48 143.93)" font-size="35.24" fill="#6fcee0" font-family="ArialMT, Arial"><tspan letter-spacing="-0.02em">T</tspan><tspan x="20.89" y="0">OKAI</tspan></text><text transform="translate(83.3 180.97)" font-size="13.88" fill="#70cfe0" font-family="ArialMT, Arial">COFFEE</text><text transform="translate(63.24 198.1)" font-size="13.88" fill="#70cfe0" font-family="ArialMT, Arial">ROASTERS</text></svg>