<svg xmlns="http://www.w3.org/2000/svg" xmlns:xlink="http://www.w3.org/1999/xlink" width="300.23" height="300.23" viewBox="0 0 300.23 300.23"><defs><linearGradient id="a" x1="7136.87" y1="7295.19" x2="7136.87" y2="7109.18" gradientUnits="userSpaceOnUse"><stop offset="0" stop-color="#399131"/><stop offset="0.23" stop-color="#36b149"/><stop offset="0.79" stop-color="#096d3e"/><stop offset="0.98" stop-color="#003b37"/></linearGradient></defs><circle cx="150.12" cy="150.12" r="149.62" fill="none" stroke="#000" stroke-miterlimit="10"/><circle cx="150.12" cy="150.12" r="149.62" fill="#fff"/><path d="M7045.15,7109.18H7228.6v133.45c-1.82,71.69-185.07,68.44-183.45,0Z" transform="translate(-6987 -7038.3)" fill="url(#a)"/><path d="M7050.21,7210.06c6.72.39,1.75-32.53,53.34-46.87,62.81-17.88,104.5,11.4,114.9,32.46,11.51,24-6.06,41-15.62,50-48.05,15-95.79,21.43-120.29,8.22C7060.63,7242.82,7050.09,7228.15,7050.21,7210.06Z" transform="translate(-6987 -7038.3)" fill="#fff410"/><path d="M7053.42,7226.43s43,20.54,92.16-9.77c22.49-18.32,54.52-36.75,65-32.11-3.84-3.81-38.92-42.14-110.54-20.37C7032.7,7185.28,7053.42,7226.43,7053.42,7226.43Z" transform="translate(-6987 -7038.3)" fill="#379a3a"/><path d="M7084.43,7199.69c6.64,0,6.64-15.76,0-15.76l-18.86.54-3.77,34.08h18.85C7089.05,7220.23,7092.82,7201.37,7084.43,7199.69Zm-5.93,12.93-10.24-.4.94-8.89h10.92C7083.61,7203.93,7082,7213.23,7078.5,7212.62Zm1.35-14.82h-9.43l.54-7.94h9.83C7084.24,7190.27,7083.3,7198.21,7079.85,7197.8Z" transform="translate(-6987 -7038.3)" fill="#fff410"/><path d="M7114.73,7183.12h-18.45l-4.85,35.53c5.29,1.12,9.67-7.9,8.23-13.69,1.25-.87,12.77-2.82,11.84,2.14l.14,10h5.79c.65-7.18,1.64-14.71-3.5-15.78C7123.21,7201.71,7124,7183.54,7114.73,7183.12Zm-5,15.49h-9l.95-9.7h8.89C7116.34,7192.18,7116.19,7195.41,7109.75,7198.61Z" transform="translate(-6987 -7038.3)" fill="#fff410"/><path d="M7124.32,7182.4l-.82,29.35c.28,7.84,24.52,7,24.24-.86l3.89-30c-4.08-.19-6.91,1.26-7,6.27l-2.16,19.59c.42,4.7-12.46,5.85-12.88,1.16l1-18.57C7131.5,7183.37,7128.31,7182.4,7124.32,7182.4Z" transform="translate(-6987 -7038.3)" fill="#fff410"/><path d="M7147.05,7215.47s35.17-44.2,48.91-43.12c11.18,8.88,14.59,12.2,14.59,12.2S7200,7175.22,7147.05,7215.47Z" transform="translate(-6987 -7038.3)" fill="#57ac4f"/><path d="M7066.21,7243.23s33,7.92,78.83-25.22c51.59-29.63,74-21.18,74-21.18s9.59,12.65-.5,31.73c-15.73,24.07-44.3,34.79-90.36,35.22C7084,7262.59,7066.21,7243.23,7066.21,7243.23Z" transform="translate(-6987 -7038.3)" fill="#d41826"/><text transform="translate(159.25 197.17)" font-size="19.65" fill="#fff" font-family="Arial-ItalicMT, Arial" font-style="italic">Instant</text></svg>