<svg xmlns="http://www.w3.org/2000/svg" width="300.23" height="300.23" viewBox="0 0 300.23 300.23"><circle cx="150.12" cy="150.12" r="149.62" fill="none" stroke="#000" stroke-miterlimit="10"/><circle cx="150.12" cy="150.12" r="149.62" fill="#f36c31"/><path d="M7141.91,7103.36a22.4,22.4,0,0,0-1.6-6.75,12.34,12.34,0,0,0-7.6-7.21c-.57-.21-.91-.13-1.11.46-.49,1.48-1.09,2.93-1.46,4.43a22,22,0,0,0,.47,10.77,27.87,27.87,0,0,1,.89,6.23,21.51,21.51,0,0,1,10.41-7.93" transform="translate(-6987 -7038.3)" fill="#fff"/><path d="M7128.48,7105.38a25.59,25.59,0,0,1,.37-15.58c.12-.36.2-.95,0-1.13a1.49,1.49,0,0,0-1.15-.08,12.46,12.46,0,0,0-8.11,6.4,21.27,21.27,0,0,0-2.18,14.38,15.6,15.6,0,0,0,2.6,6.38,12.48,12.48,0,0,0,3.26,3.14,14.71,14.71,0,0,0,1.9,1.07c.75.34,1.74.95,2.18-.08.28-.65.55-1.3.75-1.92a13.75,13.75,0,0,1,.89-3.64,20.94,20.94,0,0,0-.53-8.94" transform="translate(-6987 -7038.3)" fill="#fff"/><path d="M7154.68,7126.2a15.69,15.69,0,0,0,6.37-13.8,5,5,0,0,0-.31-1.76.77.77,0,0,0-.58-.28,5.86,5.86,0,0,0-1.72.89c-5.38,3.43-10.75,6.93-16.19,10.26-.36.31-.75.59-1.13.87-.45.53-.33,1.08.3,1.84a12,12,0,0,0,.65,1c1,1.22.64,1.94-.63,2.69-3.11,1.86-3.07,1.92-5-1.21l-.75-1.17c-.59.46-1.05.89-1.56,1.21-1.73,1.07-1.76,1.74,0,2.75a7.4,7.4,0,0,0,1.12.48C7142.53,7133,7148.94,7130.89,7154.68,7126.2Z" transform="translate(-6987 -7038.3)" fill="#fff" fill-rule="evenodd"/><path d="M7158.54,7107a31,31,0,0,0-4.67-2.28,17.18,17.18,0,0,0-4.67-.73,23.25,23.25,0,0,0-10.29,3.15c-.56.37-1.13.75-1.67,1.18-4.81,3.63-8,8.3-7.4,14.71a12.81,12.81,0,0,0,.56,2,16.91,16.91,0,0,0,2.15-.81c1.21-.62,1-1.39.34-2.46-1.76-2.67-1.7-2.71,1-4.41l.18-.1c1.22-1,2.13-.91,2.89.61a19.93,19.93,0,0,0,1.76,2.42c6.73-4.28,13.24-8.41,19.75-12.53C7158.54,7107.51,7158.54,7107.24,7158.54,7107Z" transform="translate(-6987 -7038.3)" fill="#fff" fill-rule="evenodd"/><path d="M7039.71,7179.12c0-.83-.37-1.19-1.2-1.17-1.41,0-2.83.06-4.24,0-1,0-1.27.36-1.27,1.27q0,4.05,0,8.07a11.33,11.33,0,0,1-.11,1.43,2.39,2.39,0,0,1-4,1.26,3.81,3.81,0,0,1-.79-2.13c0-7,0-16,0-23,0-4.06,0-9.2,0-13.26a3.88,3.88,0,0,1,.79-2.12,2.4,2.4,0,0,1,3.39.07,2.44,2.44,0,0,1,.61,1.18,8.73,8.73,0,0,1,.11,1.44c0,2.69,0,6.43,0,9.11,0,.91.3,1.32,1.27,1.28,1.41-.06,2.83,0,4.24,0,.83,0,1.2-.35,1.2-1.18,0-3.27.14-7.62-.06-10.87a8.6,8.6,0,0,0-7.95-8.43,14,14,0,0,0-4.47.39,7.43,7.43,0,0,0-5.29,6.46,21.86,21.86,0,0,0-.41,4.11c0,2.36,0,5.8,0,8.16h0v7.66h0c0,5.16,0,12.44,0,17.59a21.67,21.67,0,0,0,.41,4.1,7.43,7.43,0,0,0,5.29,6.47,14.62,14.62,0,0,0,4.47.39,8.59,8.59,0,0,0,7.95-8.43C7039.87,7185.69,7039.71,7182.4,7039.71,7179.12Z" transform="translate(-6987 -7038.3)" fill="#fff" fill-rule="evenodd"/><path d="M7063.13,7179.12a1.52,1.52,0,0,0-.06-.42v-9.89h0v-7.15a1.22,1.22,0,0,0,0-.32c0-3.28.15-7.63-.06-10.88a10,10,0,0,0-1.33-4.39,6.55,6.55,0,0,0-4.39-3.65,8,8,0,0,0-.85-.19,10.52,10.52,0,0,0-1.37-.2c-.36,0-.73,0-1.11,0h0c-.39,0-.75,0-1.11,0a7.92,7.92,0,0,0-1.38.2,8.64,8.64,0,0,0-.85.19,6.55,6.55,0,0,0-4.36,3.65,9.87,9.87,0,0,0-1.34,4.39c-.2,3.25,0,7.6-.06,10.88,0,.12,0,3.13,0,4.54v2.93h0c0,2.89-.06,10.15-.06,10.31,0,3.28-.14,6.55.06,9.81a10.38,10.38,0,0,0,1.36,4.4,6.58,6.58,0,0,0,4.36,3.64c.22.06.45.1.67.14a9.06,9.06,0,0,0,1.56.25c.36,0,.74,0,1.13,0s.75,0,1.13,0a9.38,9.38,0,0,0,1.56-.25c.22,0,.44-.08.66-.14a6.52,6.52,0,0,0,4.37-3.64,9.8,9.8,0,0,0,1.35-4.4C7063.28,7185.69,7063.11,7182.4,7063.13,7179.12Zm-6.71.08q0,4.05,0,8.07a9.73,9.73,0,0,1-.1,1.43c0,.11-.06.19-.08.27a3.68,3.68,0,0,1-.5.91,2.42,2.42,0,0,1-1,.58,3.4,3.4,0,0,1-.77.16,2.93,2.93,0,0,1-.77-.16,2.29,2.29,0,0,1-1-.58,3.64,3.64,0,0,1-.49-.91c0-.1-.06-.16-.08-.27a8.52,8.52,0,0,1-.1-1.43c0-2.7,0-5.38,0-8.07,0-.26-.08-10.24-.08-14.39,0-1,.08-3.31.08-3.56,0-2.68,0-6.42,0-9.11a11.61,11.61,0,0,1,.1-1.44c0-.1.06-.2.08-.28a4.28,4.28,0,0,1,.49-.89,2.66,2.66,0,0,1,1-.61,4.05,4.05,0,0,1,.77-.16,3.4,3.4,0,0,1,.77.16,2.17,2.17,0,0,1,1,.61,5.1,5.1,0,0,1,.48.89c0,.1.06.18.08.28a7.75,7.75,0,0,1,.1,1.44c0,2.69,0,6.43,0,9.11,0,.27,0,17.71,0,17.95Z" transform="translate(-6987 -7038.3)" fill="#fff" fill-rule="evenodd"/><path d="M7110.7,7143.89c0-1-.45-1.37-1.36-1.37h-15.6c-.93,0-1.4.38-1.36,1.37,0,1.38,0,2.75,0,4.12,0,1.6.1,1.7,1.7,1.7h3.8v45.85c0,.93.36,1.39,1.38,1.35,1.37,0,2.74,0,4.14,0,1.6,0,1.7-.1,1.7-1.7v-45.48H7109c1.61,0,1.7-.1,1.7-1.7C7110.68,7146.64,7110.64,7145.27,7110.7,7143.89Z" transform="translate(-6987 -7038.3)" fill="#fff" fill-rule="evenodd"/><path d="M7213.87,7143.89c0-1-.45-1.37-1.36-1.37h-15.6c-.93,0-1.4.38-1.36,1.37,0,1.38,0,2.75,0,4.12,0,1.6.1,1.7,1.7,1.7h3.8v45.85c0,.93.38,1.39,1.37,1.35,1.38,0,2.75,0,4.13,0,1.59,0,1.7-.1,1.7-1.7v-45.48h3.88c1.59,0,1.69-.1,1.69-1.7C7213.84,7146.64,7213.8,7145.27,7213.87,7143.89Z" transform="translate(-6987 -7038.3)" fill="#fff" fill-rule="evenodd"/><path d="M7115.77,7169.14v-25.23c0-1.35,0-1.35,1.39-1.35s3,0,4.45,0c.93,0,1.25.28,1.25,1.25,0,9.36,0,21.91,0,31.27v20.25c0,1.44-.14,1.58-1.61,1.58h-4c-1.25,0-1.41-.16-1.41-1.45C7115.77,7187.37,7115.77,7177.2,7115.77,7169.14Z" transform="translate(-6987 -7038.3)" fill="#fff" fill-rule="evenodd"/><path d="M7087.31,7145v-1.27c0-.81-.32-1.21-1.19-1.17-1.2,0-2.39,0-3.58,0-1.38,0-1.48.08-1.48,1.47v1h0v26.3c-.2-.24-4.83-18.92-7-27.51-.24-.93-.57-1.35-1.58-1.23a21,21,0,0,1-2.38,0c-1.84,0-1.86,0-1.86,1.82v48.37h0v3c0,.81.32,1.23,1.21,1.19,1.21,0,2.43,0,3.66,0,1.41,0,1.49-.08,1.49-1.5v-2.64h0v-24.08a.78.78,0,0,1,.21,0c.1.33.18.65.26.95,2.18,8.13,4.37,18.36,6.51,26.48.18.69.44.89,1.11.85.93,0,1.86,0,2.79,0,1.76,0,1.8,0,1.8-1.8C7087.31,7179.45,7087.31,7160.61,7087.31,7145Z" transform="translate(-6987 -7038.3)" fill="#fff" fill-rule="evenodd"/><path d="M7147,7145v-1.27c0-.81-.32-1.21-1.19-1.17-1.2,0-2.39,0-3.58,0-1.38,0-1.48.08-1.48,1.47v1h0v26.3c-.2-.24-4.83-18.92-7-27.51-.24-.93-.57-1.35-1.58-1.23a21,21,0,0,1-2.38,0c-1.84,0-1.86,0-1.86,1.82v48.37h0v3c0,.81.32,1.23,1.21,1.19,1.21,0,2.43,0,3.66,0,1.41,0,1.49-.08,1.49-1.5v-2.64h0v-24.08a.65.65,0,0,1,.2,0c.1.33.18.65.26.95,2.18,8.13,4.37,18.36,6.51,26.48.18.69.44.89,1.11.85.93,0,1.86,0,2.79,0,1.76,0,1.8,0,1.8-1.8C7147,7179.45,7147,7160.61,7147,7145Z" transform="translate(-6987 -7038.3)" fill="#fff" fill-rule="evenodd"/><path d="M7190.56,7145v-1.27c0-.81-.32-1.21-1.19-1.17-1.2,0-2.39,0-3.58,0-1.38,0-1.48.08-1.48,1.47v1h0v26.3c-.2-.24-4.83-18.92-7-27.51-.22-.93-.57-1.35-1.58-1.23a20.63,20.63,0,0,1-2.36,0c-1.84,0-1.86,0-1.86,1.82v48.37h0v3c0,.81.32,1.23,1.21,1.19,1.21,0,2.43,0,3.66,0,1.41,0,1.5-.08,1.5-1.5v-2.64h0v-24.08l.2,0c.08.33.18.65.26.95,2.18,8.13,4.37,18.36,6.51,26.48.18.69.44.89,1.11.85.93,0,1.86,0,2.79,0,1.76,0,1.8,0,1.8-1.8Z" transform="translate(-6987 -7038.3)" fill="#fff" fill-rule="evenodd"/><path d="M7166.4,7191.37c0-1.59-.1-1.7-1.69-1.7h-5.5a1.29,1.29,0,0,1-.06-.48c0-4.59,0-9.16,0-13.75,0-.24,0-2.62,0-2.95h4.93c.93,0,1.39-.38,1.35-1.37,0-1.38,0-2.75,0-4.13,0-1.59-.1-1.69-1.69-1.69h-4.55a1.55,1.55,0,0,1-.06-.31c0-4.75,0-10.55,0-15.28h5.9c.93,0,1.39-.36,1.35-1.37,0-1.38,0-2.75,0-4.13,0-.34,0-.6,0-.8,0-.65-.26-.87-1-.87h-8.67v0c-1.13,0-2.28,0-3.41,0-1,0-1.24.36-1.24,1.25,0,16.15,0,35.47,0,51.65,0,1.29.18,1.45,1.52,1.45h11.46c.93,0,1.39-.36,1.35-1.37C7166.36,7194.14,7166.4,7192.77,7166.4,7191.37Z" transform="translate(-6987 -7038.3)" fill="#fff" fill-rule="evenodd"/><path d="M7256.6,7191.39c0-1.59-.1-1.7-1.7-1.7h-5.5a1.45,1.45,0,0,1,0-.3v-3h0v-33.07c0-3.13,0-6.27,0-9.4,0-1-.26-1.43-1.33-1.37-1.44.08-2.89,0-4.33,0s-1.41,0-1.41,1.45v42.37h0v9.05c0,1.3.18,1.46,1.51,1.46h11.46c.93,0,1.4-.38,1.36-1.37C7256.58,7194.14,7256.62,7192.77,7256.6,7191.39Z" transform="translate(-6987 -7038.3)" fill="#fff" fill-rule="evenodd"/><path d="M7233.69,7196.87c-.82,0-1.65,0-2.48,0a1,1,0,0,1-1.19-.79.41.41,0,0,1,0-.16c-.35-1.9-.71-5.9-1-7.8-.11-.65-.31-.87-1-.87-1.65,0-3.31,0-5,0-.58,0-.87.14-.95.77-.24,1.9-.56,5.92-.83,7.82-.1.71-.4,1-1.15,1-1.51,0-3-.08-4.55,0-1.05.06-1.25-.36-1.11-1.27.33-2,.61-4,.89-6,.87-5.88,1.74-13.88,2.61-19.77.81-5.39,1.6-11.86,2.4-17.26.43-2.93.89-5.84,1.28-8.77.12-.91.54-1.27,1.39-1.27,1.58,0,3.18,0,4.75,0a1.19,1.19,0,0,1,1.36,1,1.1,1.1,0,0,1,0,.18c.58,3.62,1.21,7.26,1.82,10.87,1.15,6.92,2.28,17,3.41,23.92l2.79,17c.2,1.23.06,1.37-1.17,1.39C7235.29,7196.87,7234.5,7196.87,7233.69,7196.87Zm-6-17.83c-.16-1.29-.28-2.54-.4-3.8l-1.8-14.25-1.82,14.25c-.14,1.48-.3,2.95-.47,4.43-.08.73.13,1.09.93,1s1.44,0,2.17,0c1.57,0,1.57-.06,1.39-1.64Z" transform="translate(-6987 -7038.3)" fill="#fff" fill-rule="evenodd"/><path d="M7097.4,7244.72c0-.83-.37-1.2-1.2-1.18-1.41,0-2.83.06-4.24,0-1,0-1.28.37-1.28,1.28q0,4,0,8.06a10,10,0,0,1-.1,1.44,2.39,2.39,0,0,1-4,1.25,3.8,3.8,0,0,1-.79-2.12c0-7,0-16.05,0-23,0-4.06,0-9.19,0-13.26a3.8,3.8,0,0,1,.79-2.12,2.38,2.38,0,0,1,4,1.26,7.59,7.59,0,0,1,.1,1.43c0,2.69,0,6.43,0,9.12,0,.91.31,1.31,1.28,1.27,1.41-.06,2.83,0,4.24,0,.83,0,1.2-.34,1.2-1.17,0-3.28.14-7.62-.07-10.88a8.59,8.59,0,0,0-7.94-8.43,14.62,14.62,0,0,0-4.47.39,7.43,7.43,0,0,0-5.29,6.47,21.67,21.67,0,0,0-.41,4.1c0,2.36,0,5.8,0,8.17h0v7.66h0c0,5.15,0,12.43,0,17.58a21.86,21.86,0,0,0,.41,4.11,7.43,7.43,0,0,0,5.29,6.46,14.62,14.62,0,0,0,4.47.39,8.58,8.58,0,0,0,7.94-8.43C7097.54,7251.26,7097.38,7248,7097.4,7244.72Z" transform="translate(-6987 -7038.3)" fill="#fff" fill-rule="evenodd"/><path d="M7179.22,7256.94c0-1.59-.1-1.69-1.7-1.69H7172a2,2,0,0,1-.06-.49c0-4.59,0-11.28,0-15.87,0-.24,0-.5,0-.82H7177c.93,0,1.39-.37,1.35-1.38,0-1.37,0-2.75,0-4.12,0-1.6-.1-1.7-1.7-1.7H7172a1.59,1.59,0,0,1-.06-.3c0-4.75,0-10.56,0-15.29h5.91c.92,0,1.39-.36,1.35-1.37,0-1.37,0-2.75,0-4.12a4.4,4.4,0,0,0,0-.81c0-.67-.26-.87-1-.87h-8.67v0c-1.14,0-2.29,0-3.42,0-1,0-1.23.36-1.23,1.25,0,16.15,0,35.48,0,51.65,0,1.29.18,1.45,1.51,1.45h11.44c.93,0,1.4-.36,1.36-1.37C7179.18,7259.71,7179.22,7258.34,7179.22,7256.94Z" transform="translate(-6987 -7038.3)" fill="#fff" fill-rule="evenodd"/><path d="M7158.3,7215.41c.93,0,1.39-.39,1.35-1.38,0-1.37,0-2.75,0-4.12a4.4,4.4,0,0,0,0-.81.92.92,0,0,0-.12-.51v-.28c-.1,0-.16-.1-.2-.1q-6.59,0-13.18,0a.43.43,0,0,0-.24.1.74.74,0,0,0-.49.59,0,0,0,0,1,0,0,2.46,2.46,0,0,0-.06,1v50.45c0,.32,0,.63,0,.95a1,1,0,0,0,1,1.06h.19c1.48,0,2.95,0,4.43,0,1.33,0,1.5-.18,1.5-1.53v-11.22h0V7239c0-.25,0-.51,0-.83h4.93c.93,0,1.39-.37,1.35-1.38,0-1.37,0-2.75,0-4.12,0-1.6-.1-1.7-1.7-1.7h-4.54a.8.8,0,0,1-.06-.3c0-4.75,0-10.55,0-15.28Z" transform="translate(-6987 -7038.3)" fill="#fff" fill-rule="evenodd"/><path d="M7138.83,7215.41c.93,0,1.4-.37,1.36-1.38,0-1.37,0-2.75,0-4.12a5.49,5.49,0,0,0,0-.81.92.92,0,0,0-.12-.51v-.28c-.11,0-.17-.1-.21-.1-4.38,0-8.79,0-13.18,0a.43.43,0,0,0-.24.1.73.73,0,0,0-.48.59l0,0a2.16,2.16,0,0,0-.06,1v50.45c0,.32,0,.63,0,.95a1,1,0,0,0,.93,1.06.81.81,0,0,0,.22,0c1.47,0,2.95,0,4.42,0s1.5-.18,1.5-1.53v-11.22h0V7239c0-.25,0-.51,0-.83h4.93c.93,0,1.4-.39,1.36-1.38,0-1.37,0-2.75,0-4.12,0-1.6-.1-1.7-1.7-1.7H7133a1.59,1.59,0,0,1-.06-.3c0-4.75,0-10.55,0-15.28Z" transform="translate(-6987 -7038.3)" fill="#fff" fill-rule="evenodd"/><path d="M7198.93,7256.94c0-1.59-.1-1.69-1.7-1.69h-5.5a2,2,0,0,1-.06-.49c0-4.59,0-11.28,0-15.87,0-.24,0-.5,0-.82h4.93c.93,0,1.4-.37,1.36-1.38,0-1.37,0-2.75,0-4.12,0-1.6-.1-1.7-1.7-1.7h-4.55c0-.14-.06-.24-.06-.3,0-4.75,0-10.56,0-15.29h5.9c.93,0,1.4-.36,1.36-1.37,0-1.37,0-2.75,0-4.12a5.49,5.49,0,0,0,0-.81c0-.67-.27-.87-1-.87h-8.68v0c-1.13,0-2.28,0-3.41,0-1,0-1.23.36-1.23,1.25,0,16.15,0,35.48,0,51.65,0,1.29.18,1.45,1.51,1.45h11.46c.93,0,1.4-.36,1.36-1.37C7198.89,7259.71,7198.93,7258.34,7198.93,7256.94Z" transform="translate(-6987 -7038.3)" fill="#fff" fill-rule="evenodd"/><path d="M7120.82,7244.72a1.54,1.54,0,0,0-.06-.43v-9.9h0v-7.16a1.17,1.17,0,0,0,0-.32c0-3.28.14-7.62-.06-10.88a10,10,0,0,0-1.33-4.38A6.56,6.56,0,0,0,7115,7208c-.28-.08-.56-.12-.85-.18a10.54,10.54,0,0,0-1.37-.21c-.37,0-.73,0-1.11,0h0c-.39,0-.75,0-1.12,0a8,8,0,0,0-1.37.21c-.28.06-.57.1-.85.18a6.6,6.6,0,0,0-4.37,3.66,9.82,9.82,0,0,0-1.33,4.38c-.2,3.26,0,7.6-.06,10.88,0,.12,0,3.13,0,4.55v2.93h0c0,2.89-.06,10.14-.06,10.31,0,3.27-.14,6.54.06,9.8a10.41,10.41,0,0,0,1.35,4.41,6.63,6.63,0,0,0,4.37,3.63c.22.06.45.1.67.15a10.19,10.19,0,0,0,1.55.24c.37,0,.75,0,1.14,0s.74,0,1.13,0a10.19,10.19,0,0,0,1.55-.24c.23,0,.45-.09.67-.15a6.56,6.56,0,0,0,4.37-3.63,9.88,9.88,0,0,0,1.35-4.41C7121,7251.26,7120.8,7248,7120.82,7244.72Zm-6.71.06q0,4,0,8.06a10,10,0,0,1-.1,1.44c0,.1-.06.18-.08.26a3.27,3.27,0,0,1-.51.91,2.29,2.29,0,0,1-1,.58,1.81,1.81,0,0,1-1.53,0,2.29,2.29,0,0,1-1-.58,3.64,3.64,0,0,1-.49-.91c0-.08-.06-.16-.08-.26a8.72,8.72,0,0,1-.1-1.44q0-4,0-8.06c0-.25-.08-10.25-.08-14.4,0-1,.08-3.31.08-3.57,0-2.69,0-6.43,0-9.12a11.61,11.61,0,0,1,.1-1.44c0-.1.06-.2.08-.28a4.55,4.55,0,0,1,.49-.89,2.44,2.44,0,0,1,1-.6,4.08,4.08,0,0,1,.77-.17,3.22,3.22,0,0,1,.76.17,2,2,0,0,1,1,.6,5.15,5.15,0,0,1,.49.89c0,.1.06.18.08.28a7.75,7.75,0,0,1,.1,1.44c0,2.69,0,6.43,0,9.12C7114.11,7227.09,7114.11,7244.53,7114.11,7244.78Z" transform="translate(-6987 -7038.3)" fill="#fff" fill-rule="evenodd"/></svg>