<svg xmlns="http://www.w3.org/2000/svg" width="299.23" height="299.23" viewBox="0 0 299.23 299.23"><circle cx="149.62" cy="149.62" r="149.62" fill="#fff"/><path d="M7196.18,7222.05a7.21,7.21,0,0,1,5.28,3,30.07,30.07,0,0,1,4.79,8.26,14.16,14.16,0,0,1-1.94,14.39,67.17,67.17,0,0,1-5.2,6.42c-1.36,1.41-1,2,.41,2.89a17.75,17.75,0,0,0,6.42,2.51c4.25.64,8.41,1.83,12.75,2a8.44,8.44,0,0,1,3.73,1.22,3.18,3.18,0,0,1-1.45,5.85,7.14,7.14,0,0,1-3.56-.31c-5.58-2.8-11.77-2.55-17.66-3.79a10.81,10.81,0,0,0-2-.23c-1,0-2.27-1.08-2.95.29a3.62,3.62,0,0,0,.52,3.46c2.23,3.75,6,4.54,9.87,5.17a25,25,0,0,0,4,.1c1.8,0,3.4.61,4,2.34a3.63,3.63,0,0,1-1,3.76c-1.51.87-3.3,2.82-5.19,1.51-5.57-3.87-12.33-3.57-18.36-5.7-13.82-4.89-27.82-.91-41.71-1-12.69-.11-25.4,1-37.88-2.26a54.22,54.22,0,0,1-13.45-5.41,21.48,21.48,0,0,1-8-7.27c-5.13-8.33-12.14-15.42-16.18-24.48-7.05-15.82-8.84-32.1-3.38-48.65,2.12-6.43,5.71-12.38,8.64-18.54,2.08-4.38,4.32-8.68,6.23-13.13,1.58-3.69.65-5.75-2.89-7.58-3.33-1.73-5.87-1.09-8,2a13,13,0,0,0-2,4.87c-2.36,12.15-13.4,16.08-24.37,14.36-12.75-2-24.56-20.78-19.25-36.13,2.43-7,6.93-12.7,11.17-18.6,8.22-11.43,19.66-17,33.27-18.66,17.13-2,33.8-.91,48.87,8.6,18.32,11.57,26,28.37,23.89,49.79-.3,3-1.68,5.66-2.63,8.46-1.61,5.67-6,9-10.33,12.47-7,5.55-13.92,11.16-19.66,18.1a62.39,62.39,0,0,0-14.75,38.47c-.15,4-.66,8,.05,11.91a29.09,29.09,0,0,1,.55-12.84c1.75-6.67,2.59-13.67,6.05-19.84.79-1.41,1.1-3.17,2.81-3.91,1.65.54,2.27,0,3.62-1.41,2.42-2.53,5.16-4.79,7.55-7.45.74-.83,1.86-1.25,2.12-2.58.43-2.2,2.22-2.71,4-2.53a3.91,3.91,0,0,1,3.72,3.62,3.22,3.22,0,0,1-3,3.42c-2.47.42-3.07,1.92-2.54,4.06.76,3.05.16,6.14.43,9.2a2.55,2.55,0,0,1-.31.89,5.3,5.3,0,0,1-2.43,1.59,4.55,4.55,0,0,0-2.33,6.09c.48,1,2,1.73,1,3.12-1.54,2.08-1.56,5.26-5,6a42.34,42.34,0,0,1-6.5.64c.72,1.12,1.45,2.05,1.33,3.23-.76,2.7-.05,5.45-.25,8.17-1.18,1.95-2.71,3.74-2.07,6.37.31,1.25-.63,1.91-1.81,2.36-3,1.13-3.41,2.25-2.52,6.5.53,2.55,2.58,2.9,4.61,2.72a26.21,26.21,0,0,1,6.91.32c1.91.33,3.43.92,3.59,3.16.09,1.11.63,2.06,1.78,2,5.12-.11,10.38,1.33,15.28-1.3a13.7,13.7,0,0,0,3.4-3.35,9.35,9.35,0,0,1,6.66-.56c.88.74.6,1.8.88,3.31.48-2.17.35-4,1.24-5.47,0-2.49,2-4.29,2.31-6.75.17-1.48,1.47-1.18,2.2-.31,1.32,1.58,3.07,2.91,3.51,5.11.18,1.71.1,3.43.16,5.14.37,1.39-.73,3.45,1.19,4.09a12.85,12.85,0,0,0,6.52.05c.74-.15,1-.86,1.06-1.53.33-3.28,2.7-3.65,5.26-3.67,3.61,0,7.21-.3,10.84-.12,4.08.21,4.45-.33,4.87-4.26a1.62,1.62,0,0,1,1.05-1,13.39,13.39,0,0,1,2.61.09c1,0,2.07-.11,2.24-1.39a2.23,2.23,0,0,0-1.44-2.34c-.2-.1-.41-.16-.61-.24-1.23-.47-3.15-.15-3-2.28a3.31,3.31,0,0,1,2.27-3,3.25,3.25,0,0,1,3.95,1.52l.34.55c1.17,1,1.71-.09,2.31-.73.94-1,1.55-2.31,2.74-3.11a2.48,2.48,0,0,1,1.24-.39c.91,0,1.92,0,2-1.16.14-1.34-1-1.16-1.82-1.28-.44-.06.1.07-.33,0-.78-.15-2-.49-1.92-1.05.51-4.78-6.84-4.08-6.13-8.95a21.84,21.84,0,0,0-.24-3.94c-.06-1.48.18-3.36,1.55-3.72C7192,7222.91,7193.76,7220.82,7196.18,7222.05Z" transform="translate(-6987.5 -7038.8)"/><path d="M7133.8,7264.54a8.63,8.63,0,0,1-6.64,2c-3-.18-5.95,0-8.92-.05-2.08,0-3.85-.33-3.16-3.15.26-1-.25-2-1.21-2-2.31-.07-4.48-1.12-6.84-.78-5.57.81-6.3-.11-7.19-5.31-.62-3.55-.53-5.57,3.71-5.44,1,0,1.13-.9.8-1.72-1.12-2.79.33-4.6,2.31-6.22a9.15,9.15,0,0,1,3.88,9.29c-.69,2.79-2.32,4.69-5,4.8,3.08.09,5.59-2.69,5.45-6.63-.09-2.62-1.39-4.79-2.66-7-2.41-4.21-1.46-8.15,2.44-10.55-1.75-.31-2.45,1.83-4.1,1.72-.1-.53,0-1.38-.34-1.54-.95-.5-1.38-1.08-.8-2s1.37-.58,2.11-.5c5.29.55,8.25-1.33,9.59-6.18.07-.25,0-.74-.17-.8-3.42-1.47-1-4.25-1.4-6.37-.22-1.17.84-1.79,1.86-1.89a13.88,13.88,0,0,0,3.69-1.38c.83,1.06.18,2.1-.07,3.14-.79,3.19-1.81,6.33-2.41,9.59-.32,1.77.75,1,1.38,1.19a4.06,4.06,0,0,0,3.69,1.76,4.31,4.31,0,0,1,3.15.68,6.31,6.31,0,0,0,4.75,1.18c-2.77-.44-3-2.46-2.66-4.45.29-1.83-.11-4,1.82-5.3.83.25.95,1.13,1.44,1.68.94,1.06,1.7,1.12,2.48-.27,2.17-3.86,3.24-4.18,7.8-2.56.62,3.53-1.59,6.59-1.52,10.7,1.49-9.76,4.51-18.4,7.82-26.95-.86,1.89-1.3,3.94-2.32,5.77-.31.55-.57,1.28-1.41,1.16a1.7,1.7,0,0,1-1.33-1.33c-.57-2-.94-4-1.53-6a3.85,3.85,0,0,1-.22,2c-2.21,2.6-4.39.43-6.58,0-.85-3.25,1.92-5.44,2.17-7.87a126.7,126.7,0,0,0-8.95,29.63c-.2,1.12.13,2.52-1.38,3.06-1.73-3-4.21-4.34-7.69-3.43-.83-3.41,1.29-10.49,3.79-12.57.3-.25.85-.2.72-.84-1.32-6.26,3.1-10.55,5.37-15.57.46-1,1.53-1.28,2.85-1.44-2-.92-2.44.35-3,1.4a96.57,96.57,0,0,0-6.19,13.48c-.37.95-.42,2.27-1.93,2.31-1-3.9-.2-7.95-1.11-11.9-.33-1.41,1-2.89,3-2.73a2.63,2.63,0,0,0,3.06-2.67,3.34,3.34,0,0,0-3.35-3c-1.57.06-3.51.55-3.16,2.81.25,1.66-.16,2.26-1.79,2.19-2-.08-2.9.83-2.47,2.85.38,1.75-.4,2.5-2.08,2.44-2.5-.09-4.14.65-3.61,3.58a1.27,1.27,0,0,1-.88,1.55c-1.63.54-1.65-1.56-2.83-1.8-.62-2.22,1.39-3.29,2.15-4.9,3.54-7.52,9-13.47,15.31-18.77,5.82-4.91,12.83-7.47,19.82-10.08l19.05-7.38c.74.92.66,2.06.85,3.13.29,1.71-.14,2.85-2.16,2.75a4.11,4.11,0,0,0-1.31.12c-3,.75-7.48-.61-7.29,4.91a.32.32,0,0,1-.19.26c-4.31,1.41-3.8,5.64-5.1,8.79-.45,1.09-.95,2.1-2.1,2.35-2.49.54-2.77,2.15-2.3,4.23a5,5,0,0,0,.19,1c.57,1.11-.52,3.09,1.05,3.39,1.37.27,1.38-1.68,2-2.64,1.81-2.78,4.62-1.86,7.17-1.84a1.56,1.56,0,0,1,.25,1.24c.66.07.42-.54.57-.82a79.64,79.64,0,0,0,4.35-10.3c.44-1.13.68-2.34,1.9-3.09a8.52,8.52,0,0,0-2.43.06c.82,2.86-1.84,10.79-4.18,12.44-.27.19-.63,0-.91-.16-2-3.65-1.48-7.69-1.3-11.52.08-1.92,2-3.61,4.49-3.53a36.9,36.9,0,0,0,10.08-.83c2.88-.7,5.88-.05,8.79.59a2.73,2.73,0,0,1,2.38,2c-2.39,1.6-2.18,4-2,6.42.25,4-.8,7.84-2,11.61-.5,1.51-.61,2.63,1.44,2.66.36.27.47-.46.28-.06,0,.08-.1,0-.24,0-1.63-.5-1.52-1.79-1.17-3,.59-2,.52-4.21,2.22-5.73.5-.45.49-.74.2-1.34-1.08-2.29-.36-4.76-.53-7.14-.14-2.06,1.39-2.18,3-1.52.93,1,.8,2.22.82,3.41a6.21,6.21,0,0,0,1.23,4c1.16,1.43,1.59,2.86,0,4.31-.92.83-.84,1.94-.75,3.06a51.82,51.82,0,0,1-.1,5.57c-.05,2-.75,3.38-2.67,4.06-2.91-.47-4.14.86-4.48,3.72-.6,5-.93,10.09.14,15.07.75,3.52,2.42,4,5.74,2.32,1.88-4.16,1.68-7.63-.32-8.72,1.94,2.55,1.53,5.42.47,8.35-3,1.9-4.66,1.44-5.68-1.75a15.67,15.67,0,0,1-.16-9.05,3.07,3.07,0,0,1,3.27-1.09c3,.46,6-.18,8.9.09,2.61.23,4-.75,4.3-3.32,0-.44.16-.87.25-1.3.77-3.82,1.06-3.95,4.34-1.95-.75,4.74-2.91,9-5,13.21-1,2-.73,2.44,1.54,2.14,2-.27,4.18-.76,6.11.52h-3.27c-.15,1.1,1.26.29,1.2,1.17-5,.42-5,.48-4.63,5.77a26.75,26.75,0,0,1,0,3c-.06,1.73.6,2.8,2.47,2.69,2.17-.12,3,.93,2.85,3-.14,1.87.56,2.88,2.66,2.74.81-.05,2.08-.91,2.54.52a4.06,4.06,0,0,1-.81,3.43c-.91,1.42-1.63,0-2.45-.12-.37-.08-.81.25-1.22.39-.11,0-.25,0-.33,0-4,2.77-4,2.76-5.11-2.35-1-4.79-4-8.69-5.95-13.08,2.23,5.09,5.45,9.77,6.36,15.4.21,1.36.94,2.79-.46,4a3.31,3.31,0,0,0-2.77-2.38c-1.72-.17-2.24,1.21-2.68,2.4-.53,1.47.73,1.28,1.54,1.29,2.68.05,4.37,1.37,3.92,4-.54,3.18-3.13,1.73-5,1.64a2.62,2.62,0,0,1-.9-.39c-.22-.8-.63-1-1.41-.58-1,.5-2,.84-2.9-.27-.85-2.78-.28-5.68-.74-8.51-.22-1.33.85-2.17,1.92-2.83-2.74-.16-5.51-7.16-4.49-11.45-1.46.34-1.16,1.21-.81,2.23a52.08,52.08,0,0,1,3.44,19c0,1.11-.61,2.88,1.6,2.91.9-.06,1.79-.53,2.7-.07.88,4.87-.12,6.08-5.36,5.34-4-.58-8,.36-12,.15-2.2-.11-3.35.79-3.1,3.11.19,1.75-.68,2.38-2.34,2.26-1-.07-2,0-3,0-4.93,0-4.93,0-5.23-4.76,1.92-2.41.72-5.31,1.25-7.95.22-1-.18-2.35,1.17-2.82,1.52-.52,2.54.45,3.38,1.51,1.81,2.3,1.66,5.07,1.69,7.78.3-3.4-.11-6.61-2.5-9.29-1.18-1.33-.92-2.77-.47-4.35,1-3.67.86-7.2-1.75-10.28-.75-.89-1.68-1.71-2.83-1.31-1.35.48-.58,1.76-.41,2.59a88.72,88.72,0,0,1,1.61,13.77c.06,1.58,1.1,3.58-1.1,4.69l-4.39-6.07c.53,3.86-2,5.83-2.34,8.53-1.22-1.31-.73-2.84-.62-4.36.34-4.91,1.2-9.79.87-14.73a129.62,129.62,0,0,1-1.54,19,2.63,2.63,0,0,1-1.39,2.12l-6.44.67c-1.37-2.27-.42-4.4.38-6.54,1-.64,1,.33,1.3.84.81-1.43-.93-1.89-1.14-2.94-1-4.56.76-9.08.33-13-.46,5.61-.37,11.87-1.48,18-.32,1.8,0,5.08-3,4.49s-1.73-3.42-1.34-5.5a2.4,2.4,0,0,1,.49-.85c1-1,1.77-1.89-.29-2.51-.46-5.06.52-10.08.29-15.12-.17,6.73-.34,13.46-1,20.15A7,7,0,0,0,7133.8,7264.54Z" transform="translate(-6987.5 -7038.8)" fill="#030306"/><path d="M7193.52,7206.18c-1.6,2-1.88-.18-2.83-1.36a48.66,48.66,0,0,0-1.13,6.14c-.13,2.52-1.9,2.87-3.63,2.88-4.34,0-8.69-.24-13-.39-2.19-4.93-.81-8.38,4-10,2.58-2.82,1.66-6.28,1.74-9.55,0-.42-.47-1.08-.32-1.22,4.55-4.52-2.2-8.81-.23-13.25a4.39,4.39,0,0,1-1-1.68,14.1,14.1,0,0,0-11.93-1.74c-3,.81-5.77.66-8.61.81-3.69.2-5.06,1.56-4.36,5.24.58,3-.32,6.19,1,9.13l-.14.41a4.8,4.8,0,0,1-2.85.66c-2.27-.22-3.84.2-3.89,3.05,0,1.53-1.6,2.15-2.93,2.1-1.89-.07-.84-1.56-.95-2.51s-.5-2.14-.58-3.23c-.19-2.28-.92-4.3,2.83-5.2,2.37-.56,3-4.38,2.95-7.16,0-1.56.13-2.19,1.74-2.36,2-.21,3.05-1.34,2.87-3.53-.21-2.65,1.23-3.82,3.63-2.81s4.22-2.16,6.44-.14c.52-2-.65-3.71,0-5.41l6.63-5.28c1.88-1,3.87-.28,5.81-.38,1.34-.07,2.63-.07,1.42-2s-1.95-3.44,1.65-4.2c1.49-.31,4.89-.8,5-4.06,0-.63.43-1.28,0-1.9-1.62-2.29.14-3,1.74-3.91,1-.57,2.72.23,3.22-1.15a9.08,9.08,0,0,0,.71-5.48c-.59-2.18,0-4.4-.44-6.56-.17-.79.5-1.16.74-1.74a51.16,51.16,0,0,1-.52-5.23c0-4.09,2.54-5.76,6.58-4.47.84.58,1.1,1.17,0,1.8-4.33,1-5.4,2.57-3.35,5,0,0,.22,0,.3,0s.13-.17.19-.28c.39-1.08.61-2.26,1.76-2.86,1.62-.65,2.52,1.18,4,1.16.81.13,1.63.42,2.41-.12.62-.25.51-.84.63-1.33-.77-2.25-.39-3.4,2.27-2.33.5-.45.51,1.77,1.17.23a3.81,3.81,0,0,1,2.61-2.3c1.45-.16,1.91.86,2.42,1.94.43.88.42-.22.68-.23a.54.54,0,0,1,.72,0c.19,3.59,2.58,4.8,5.6,6.1,8.73,3.73,13.05,11.51,16.38,19.75,1.67,4.16-.77,7.5-4.15,9.87-6.26,4.38-12.75,8.27-20.76,8.34-3.67,0-5.45,2.72-6,5.58-.72,3.58-1,7.47,1.63,10.72,3.78,5.12,8.93,3.47,13.83,2.69,3.46-.54,6.75-1.89,10.26-2.29,2.53.45,4.93-.66,7.4-.62,1.31,0,3.69-.72,3.1,2.24-.69.79-1.82.59-2.52,1.07a3.52,3.52,0,0,1,4.29,2.14c.25,2.6-1,3.68-3.52,3.5-.49.49-1.63-1.69-1.72.44a1.19,1.19,0,0,1-.86,1c-2.63.12-5.16-1.39-7.82-.4-8.12,2.6-17,2.81-24.45,7.52a2.52,2.52,0,0,1-3.07,0c-2.2-1.58-3.27-1.08-3.52,1.77C7194.47,7201.27,7194.76,7203.84,7193.52,7206.18Z" transform="translate(-6987.5 -7038.8)"/><path d="M7143.26,7172.42c-2.87,1.56-5.61,3.5-8.64,4.61-10.92,4-18,12.27-24.12,21.53-1.64,2.45-3,5.07-4.52,7.61a41.8,41.8,0,0,0-5.94,14.13c-1.17,5.9-3.55,11.57-3.28,17.75a24.85,24.85,0,0,1-.3,5.29c-1.57-3.56-1.45-7.38-1.33-11.09.65-21.11,9.87-38,25.84-51.43q5.93-5,12-9.81c3.35-2.63,5.65-6.08,8-9.51.42,3.24-.1,6.56,1,9.75C7142.31,7172,7142.54,7172.35,7143.26,7172.42Z" transform="translate(-6987.5 -7038.8)" fill="#f6f6f7"/><path d="M7188.74,7128.36c-.12,4.37,1.21,8.69.15,13.1-.41,1.69-.58,2.7-2.82,2.32-.9-.16-4.43-.39-2.16,3,.69,1-.76,2.64-.86,3.9-.16,2.12-1.16,2.3-2.68,1.9-.56-.14-.73-.2-.83.39-.4,2.5-2,1.53-3.68,1.14.13,1.24.23,2.35,1.3,3.13.78.56,1.3,1.25.78,2.24s-1.34.78-2.28.76a36.87,36.87,0,0,1-6.72-.47c3.67-5.33,7.27-10.63,8-17.39a10.53,10.53,0,0,1,3.2-6,4.59,4.59,0,0,1,2.07,1.11,5.64,5.64,0,0,0,2.78-3.71,1.58,1.58,0,0,0-.87-1.92A11.8,11.8,0,0,1,7188.74,7128.36Z" transform="translate(-6987.5 -7038.8)" fill="#07070a"/><path d="M7235.91,7169.71c.2-3.51,2.42-4.61,5.84-2.89,4.78,2.4,8.08,9.43,7.22,15.46a15.72,15.72,0,0,1-.6,2.9c-1,3.06-2.74,3.4-5.23,1.12-1.71-.95-1.94-2.83-2.61-4.37-1.38-3.19-2.92-6.3-4.47-9.4C7235.72,7171.6,7235.11,7170.69,7235.91,7169.71Z" transform="translate(-6987.5 -7038.8)" fill="#060609"/><path d="M7235.91,7169.71l.65,2.61c.87,2.24,1.86,4.42,2.89,6.59.59,1.24,1.49,2.51.62,4-1.31.36-2.47.41-2.88-1.27,1.06-1.56-.37-1.21-1-1.29-3-.36-5.82,1.2-8.82.62,1.05-1.17,1.4-3,1.49-6.44a7.31,7.31,0,0,1,.49-3.51Q7231.9,7166.8,7235.91,7169.71Z" transform="translate(-6987.5 -7038.8)" fill="#0d0c0f"/><path d="M7229.3,7171c.07,3-1.26,6.17,1,8.91l-3,1c-5,.9-9.77,2.55-14.82,3.05-5.75.56-7.45-.22-9.21-4.33,1.09,1,2.28-2.68,3.33.07.63,1.74,2.19,1.53,3.56,1.65,4.23.36,8.22-.85,12.24-1.86,1.79-.45,3.62-.81,5.43-1.2C7229.24,7176.1,7227.17,7173.15,7229.3,7171Z" transform="translate(-6987.5 -7038.8)" fill="#e4e4e4"/><path d="M7227.85,7178.36c-1.67,2.12-4.27,1.73-6.48,2.32a38.15,38.15,0,0,1-11.29,1.71,5.79,5.79,0,0,1-4.21-1.53c-.9-.95.29-.86.75-1.09h0a30.92,30.92,0,0,0,9.36-.13c2.47-.49,5-.91,7.41-1.51C7224.94,7177.74,7226.4,7177.5,7227.85,7178.36Z" transform="translate(-6987.5 -7038.8)" fill="#131313"/><path d="M7233.9,7189.52c0-.46.05-.92.07-1.39.49-.5,1.26.21,1.72-.4,2,.17,3.46-.37,3.52-2.72.05-.65.12-1.29.83-1.59,2.14.39,2,2.2,2.33,3.73-.18,1-.37,2-.55,3C7239.11,7190.89,7236.44,7191,7233.9,7189.52Z" transform="translate(-6987.5 -7038.8)" fill="#1c1e20"/><path d="M7202.76,7120.34c-1.14,0-2.46-.23-2,1.67-1.1-3.45.06-6.45,2.82-7.31,3.06-.95,5.72.8,7,4.64l-.3,0-.31-.05c-1.22.29-1.19-1-1.8-1.45-1.73-1.36-3.33-1.09-4.61.81A3.17,3.17,0,0,1,7202.76,7120.34Z" transform="translate(-6987.5 -7038.8)" fill="#232323"/><path d="M7242.37,7187.15c-1-1.19-1.07-3-2.45-3.91l0,.08c.13-2.87-1.75-5-2.56-7.59-.35-1.1-1.15-2.13-.83-3.41,3.1,4.23,4.61,9.21,6.58,14Z" transform="translate(-6987.5 -7038.8)" fill="#cacacd"/><path d="M7233.9,7189.52c2.72-.82,5.18,1.78,7.92.61l-.27,1.55c-3.82-.8-7.85-.07-11.58-1.79-1.22-.55-2.81-.28-4.24-.39C7228.46,7187.87,7231.18,7189.76,7233.9,7189.52Z" transform="translate(-6987.5 -7038.8)" fill="#ececee"/><path d="M7181.94,7137.87a2.07,2.07,0,0,1-1.8-1.46,10.32,10.32,0,0,1,4-4.52c2.35-.69,1.69.76,1.39,1.95A11.71,11.71,0,0,1,7181.94,7137.87Z" transform="translate(-6987.5 -7038.8)"/><path d="M7200.11,7123.34c-.69.93-1.73.42-2.6.65-.87-.29-1.29-1.06-1.8-1.73s-1.29-1.21-1-2.23c.89-.42,0-.92.06-1.37,1.66.23,2.2,1.58,2.74,2.85S7198.67,7123.54,7200.11,7123.34Z" transform="translate(-6987.5 -7038.8)" fill="#36383a"/><path d="M7216,7179.63c-3.11.8-6.22,1.39-9.36.13Z" transform="translate(-6987.5 -7038.8)" fill="#e4e4e4"/><path d="M7152.46,7256.07c.72-6.39-.5-12.62-1.47-18.88-.18-1.19-1.41-2.93.08-3.53s3.19.21,4.46,1.47a11.35,11.35,0,0,1,2.13,12.25c-.66,1.33-.87,1.95.46,3.19,3.47,3.23,2.94,7.54,2.36,11.74-.09.6-.38,1.09-1,1s-.83-.68-.81-1.25c.07-1.87.27-3.73.24-5.6a6.09,6.09,0,0,0-.69-2.52c-.57-1.17-1.17-2.82-2.68-2.55s-.74,2-.85,3.05c-.2,1.86-.17,3.74-.19,5.62,0,1.42-.57,2.07-2,1.69C7152.43,7259.84,7152.44,7258,7152.46,7256.07Z" transform="translate(-6987.5 -7038.8)" fill="#efeff1"/><path d="M7133.8,7264.54c-2.55.07-3.58-1.33-3.52-3.72.23-8.27,1.14-16.53.88-24.82,0-.5-.14-1.2.65-1.26,1.2-.09,1.09.85,1.08,1.59-.07,4.64-.17,9.28-.26,13.92,0,1.21,0,2.42,0,3.63a1.62,1.62,0,0,1-.05,2,20.21,20.21,0,0,0-.47,3.25c0,1-.65,2.43,1,2.69s1.45-1.28,1.65-2.25c1.42-7,1.45-14.21,1.83-21.35,0-.91-1-2.62.79-2.6,1.38,0,1,1.75,1,2.76-.13,4.95-.36,9.9-.55,14.85.41.41.32.76-.11,1.09q-.54,3.43-1.06,6.87A5.36,5.36,0,0,1,7133.8,7264.54Z" transform="translate(-6987.5 -7038.8)" fill="#f2f1f3"/><path d="M7106.7,7233.51a4.57,4.57,0,0,1,5.87-2.25c.55.17,1.11.35,1,1.05-.06.55-.58.65-1,.61-1.55-.17-3.12-.59-3.87,1.44-.87,2.36-1.17,4.71,0,7,1,2.06,2.46,3.95,3,6.23a8.35,8.35,0,0,1-2.52,8.14c-1.75,1.78-3.83,1.32-5.89.88a1.46,1.46,0,0,1-1.15-1.08c.27-.88,1-.64,1.62-.6,4.46.33,7.28-3.27,5.83-7.65a15.76,15.76,0,0,0-3-5.44A19.48,19.48,0,0,1,7106.7,7233.51Z" transform="translate(-6987.5 -7038.8)" fill="#e8e8e9"/><path d="M7143.05,7260.52a90.18,90.18,0,0,0,1.83-22.23c0-.8-.68-2,.64-2.14s.94,1.27,1,2c.67,5.17-.22,10.3-.47,15.44-.08,1.64-.24,3.28-.36,4.91-.3,1.47-.59,2.95-.88,4.42-.16.83-.14,2-1.27,1.9s-.82-1.26-.73-2.09S7143,7261.27,7143.05,7260.52Z" transform="translate(-6987.5 -7038.8)" fill="#e8e8e9"/><path d="M7190,7248.59c-.07-7-3.45-12.81-6.66-18.69-.26-.48-.62-.9-.92-1.36s-.62-1.32.1-1.72,1.16.27,1.5.85c3.42,5.87,7,11.7,7.64,18.76,1.54-.11,1.67-1.59,2.46-2.38.93-.94,1.24-.43,1.37.56-1.21,1.57-2.37,3.17-3.65,4.68C7190.75,7250.63,7190.28,7249.82,7190,7248.59Z" transform="translate(-6987.5 -7038.8)" fill="#e2e2e4"/><path d="M7108.07,7109.23c2.82.84,5.5,1.9,7.42,4.78-3.5-.23-5.69-2.46-8.22-4C7107.13,7109.38,7107.35,7109.06,7108.07,7109.23Z" transform="translate(-6987.5 -7038.8)" fill="#c4c4c7"/><path d="M7183.43,7255.64l-2.52,1c-.85-.53-1.41-1.16-.65-2.17,1.13.45,1.83-.43,2.68-.86.64-.33,1.37-1.1,2-.27s-.55,1.23-.83,1.86Z" transform="translate(-6987.5 -7038.8)" fill="#c7c7ca"/><path d="M7109.23,7118c-1.92.13-3.26-.1-3.86-1.71a.75.75,0,0,1,.72-.92C7107.7,7115.32,7108.75,7116.11,7109.23,7118Z" transform="translate(-6987.5 -7038.8)" fill="#c0c0c3"/><path d="M7094.15,7106.22c2.68-.45,4.93-.53,7.47.94C7098.82,7107.67,7096.58,7107.73,7094.15,7106.22Z" transform="translate(-6987.5 -7038.8)" fill="#e7e7e7"/><path d="M7103,7178.56c-.59,2.39-1.8,3.53-3.46,5C7099.87,7181.18,7100.45,7179.6,7103,7178.56Z" transform="translate(-6987.5 -7038.8)" fill="#a6a5aa"/><path d="M7078.11,7118.7c1.74-1.51,3.61-.7,6.18-.43-2.5,1.49-4.33,1.74-6.23.38Z" transform="translate(-6987.5 -7038.8)" fill="#474747"/><path d="M7108.07,7109.23l-.8.82-4.32-1.83C7104.91,7107.58,7106.52,7108.26,7108.07,7109.23Z" transform="translate(-6987.5 -7038.8)" fill="#7e7e82"/><path d="M7078.06,7118.65c-.88,2.25-3.24,1.73-4.79,2.73.89-2.27,3-2.22,4.84-2.68Z" transform="translate(-6987.5 -7038.8)" fill="#8b8b8b"/><path d="M7042.54,7134.35c.87,2,.82,3.26,0,4.76C7041.7,7137.58,7041.63,7136.36,7042.54,7134.35Z" transform="translate(-6987.5 -7038.8)" fill="#ddd"/><path d="M7134.17,7137.73c1.38,1.32,1.07,2.43.68,3.72C7133.43,7140.48,7133.61,7139.32,7134.17,7137.73Z" transform="translate(-6987.5 -7038.8)" fill="#6f6f70"/><path d="M7123.94,7123.42a3.19,3.19,0,0,1-3.32-1.46C7122.53,7121.52,7122.53,7121.52,7123.94,7123.42Z" transform="translate(-6987.5 -7038.8)" fill="#e7e7e9"/><path d="M7058.42,7117.54l-4.19,2.37C7055.59,7117.49,7055.59,7117.49,7058.42,7117.54Z" transform="translate(-6987.5 -7038.8)" fill="#adadaf"/><path d="M7098.51,7135.7c2.27-.16,2.75,1.16,4.3,2.07A4.31,4.31,0,0,1,7098.51,7135.7Z" transform="translate(-6987.5 -7038.8)" fill="#5a595d"/><path d="M7092,7187.69c.18,1.21.31,2.44-1.15,3C7090,7189.28,7091.08,7188.52,7092,7187.69Z" transform="translate(-6987.5 -7038.8)" fill="#bababa"/><path d="M7130.49,7127.92c2.26.47,2.19,1.65,1.95,3.1C7130.93,7130.5,7130.81,7129.38,7130.49,7127.92Z" transform="translate(-6987.5 -7038.8)" fill="#a09fa3"/><path d="M7068.56,7110.1c-1.37,1.28-2.24,1.94-3.73,1.41C7065.65,7110,7066.72,7109.81,7068.56,7110.1Z" transform="translate(-6987.5 -7038.8)" fill="#c8c8c8"/><path d="M7099.6,7201.9a4.32,4.32,0,0,1,.84-4.39l.76.3Z" transform="translate(-6987.5 -7038.8)" fill="#757575"/><path d="M7142.29,7219.42c-1.29.71-2.56-.19-3.86,0s-2.46.28-2.6,1.88c-.13,1.45-.16,3.18-2.15,2.94a2.75,2.75,0,0,1-2.55-3.51,1.87,1.87,0,0,1-.6-1.8,72,72,0,0,1,3.58-12.66c.28-.71.63-1.44,1.6-1.42.72-.07,1.17-1.89,2-.55,1.21,1.91,2.62.76,4,.58C7145.13,7208.29,7145.43,7216,7142.29,7219.42Z" transform="translate(-6987.5 -7038.8)"/><path d="M7160.65,7208.12a62.67,62.67,0,0,0-1.87,17.73c0,.88.08,1.76.12,2.64s.18,1.72-.91,1.77-.95-.92-1-1.67a76.85,76.85,0,0,1,.79-15.82c.51-3.14.94-6.3,1.53-9.43.16-.84-.24-2.41,1.15-2.33,1.14.07,1,1.54,1.14,2.46a92.23,92.23,0,0,0,2,9.22c0-3.3,0-6.6,0-9.9,0-.64.09-1.47,1-1.27.61.13.59.8.56,1.37-.4,7.51,1,14.92,1.21,22.4,0,.78.7,2-.56,2.24-1.42.27-1.33-1.21-1.59-2.05C7162.64,7220.09,7161.79,7214.54,7160.65,7208.12Z" transform="translate(-6987.5 -7038.8)" fill="#f4f4f6"/><path d="M7168,7253.92c-.65,1.53,1.68,4.54-1,5-1.32.22-.73-3.31-.88-5.12-.53-6.41-2.22-12.56-4-18.7-.23-.82-1-1.66-.29-2.44s1.93-.33,2.84-.1c3.74,1,6.79,6.64,5.69,11.08-.53,2.13-.63,3.33,1.37,5,3,2.54,2.67,6.55,2.45,10.22a.91.91,0,0,1-1.09.93c-.7-.09-.77-.69-.79-1.24,0-1.55,0-3.09-.11-4.63a6.44,6.44,0,0,0-.5-1.9c-.63-1.59-1.7-3.52-3.35-3.14s-.14,2.45-.48,3.73A4.68,4.68,0,0,0,7168,7253.92Z" transform="translate(-6987.5 -7038.8)" fill="#f0f0f2"/><path d="M7124.59,7242.63a30.85,30.85,0,0,1-2.89,13.38c-.77,1.63-.31,3,.13,4.42.19.62.44,1.41-.25,1.79-.85.47-1.24-.38-1.38-.94-.37-1.55-1.28-1.87-2.79-2.06-2-.25-3-1.93-2.95-3.84.09-6.89,2.13-13.4,4.18-19.89.42-1.34,1.6-1.73,2.89-1.74,1.56,0,2,1.13,2.33,2.34A24.77,24.77,0,0,1,7124.59,7242.63Z" transform="translate(-6987.5 -7038.8)" fill="#f0eff2"/><path d="M7142.29,7219.42c2.64-5,.71-9.76-.57-14.58.65-1.43-2.07-3.74.37-4.17,1.59-.29,1,2.63,1.59,4.05a38.11,38.11,0,0,1,1.3,5.58c2.12-3.64,2.55-7.42,4.93-10.8,1.06,2.47-.23,4-.78,5.46-3.06,8.25-5.89,16.56-7.26,25.29-.11.66.23,1.8-1,1.65-1.08-.13-.89-1.14-.75-1.86C7140.81,7226.5,7141.56,7223,7142.29,7219.42Z" transform="translate(-6987.5 -7038.8)" fill="#eeedef"/><path d="M7135.71,7204.81a56.72,56.72,0,0,0-4.58,15.88c-.91,1.32-.78,2.92-1.14,4.38-.64,2.62-1.09,5.15,3.13,4.3.44-.09,1.17-.14,1.26.63a1.17,1.17,0,0,1-.3.86c-1.14,1.15-5.75.19-6.79-1.38l0,0a137.11,137.11,0,0,1,9.45-32.49c.5-1.13,1-3.42,2.06-2.89,1.91.94-.31,2.34-.61,3.54C7137.56,7200.11,7136,7202.25,7135.71,7204.81Z" transform="translate(-6987.5 -7038.8)" fill="#e9e9ea"/><path d="M7121.23,7212.84c2.62-5.56,4.46-11.47,7.71-16.73.69-1.12,1.23-2.59,3-1.66.9.48,2.73.11,2.57,1.51-.18,1.61-1.72.84-2.7.62-1.24-.28-1.54.66-2,1.36a100,100,0,0,0-5.69,12.62c-.62,1.51.17,1.68,1.36,1.7a1.06,1.06,0,0,1,1.17.94c0,.84-.69,1.13-1.38,1-2.42-.49-2.94,1.09-3.39,2.9-.74,3-2,5.82-2,9,.16.13.2.26.13.37s-.12.16-.18.16c-1,.92.55,3.57-1.49,3.24-1.5-.25-.52-2.44-.4-3.74.41-4.59,2.15-8.86,3.31-13.27Z" transform="translate(-6987.5 -7038.8)" fill="#e8e8ea"/><path d="M7165.59,7178.32c1.32,2.46.9,4.85.44,7.3-.14.79-1.61,2.1.31,2.6,1.74.46,2.68-.36,2.77-2.2.13-2.58.33-5.15.49-7.73,1.48.12,1.42,1.15,1.45,2a35.38,35.38,0,0,1-3.3,16.64c-.38.82-.79,2.22-2.05,1.43-1-.64,0-1.57.38-2.29a21.26,21.26,0,0,0,2.12-5.46c-3.32-1.5-4.33.6-5.48,3-.67,1.4-1.15,4.45-2.74,3.63s.48-3,1.23-4.34A34.59,34.59,0,0,0,7165.59,7178.32Z" transform="translate(-6987.5 -7038.8)" fill="#ebeaed"/><path d="M7180.26,7254.46c-.23.86.46,1.44.65,2.17-2.62,1.76-2.41-.39-2.43-1.85a59.43,59.43,0,0,0-1.65-14.38c-.48-1.81-1-3.61-1.49-5.41-.33-1.22-2-2.65-1.22-3.41,1.11-1.06,3-1.57,5.85-1.53-5.05,2.54-2.19,5.47-1.75,8.18a18.71,18.71,0,0,1,.59,2.22c0,1.86.76,2.3,2.43,1.56.62-.28,1.53-1,2,0s-.64,1.29-1.34,1.43c-2.25.47-2.15,1.92-1.95,3.73C7180.21,7249.61,7180.17,7252,7180.26,7254.46Z" transform="translate(-6987.5 -7038.8)" fill="#e6e6e8"/><path d="M7176.92,7203.43c.29.63.35,1.65-.44,1.44-3.63-.94-3.23,1.8-3.5,3.74a37.18,37.18,0,0,0-.08,4.84,20,20,0,0,0,.41,8.81c.95,3.35,1.91,3.63,4.81,1.58.69.31.44,1,.66,1.53-3.5,2.67-6.33,1.95-7.27-2.18a41.12,41.12,0,0,1,.31-17.9C7172.51,7202.08,7174.7,7202.64,7176.92,7203.43Z" transform="translate(-6987.5 -7038.8)" fill="#e2e2e4"/><path d="M7154.42,7199.48c1.61,1.25,1.05,2.41.87,3.4-1.67,9-4.46,17.76-4.36,27,0,.69-.16,1.47-1,1.41-1.09-.07-1-1.06-.93-1.79.18-6.64,1.51-13.11,2.95-19.56C7152.71,7206.57,7153.54,7203.19,7154.42,7199.48Z" transform="translate(-6987.5 -7038.8)" fill="#e8e8ea"/><path d="M7177.06,7177.73c1.5-.16,1.06.9,1,1.68-1.18.15-2.48,0-2.12,2a26.38,26.38,0,0,1,0,4.62c0,.54-.2,1.17,0,1.6.56,1.08,2.93-.26,2.67,1.47-.19,1.29-2.58-.26-3,.92a61.52,61.52,0,0,0-1.92,7c1.27,1,2.9-.42,4.23.89-1.68,1.47-3.65,1-5.48.9-1.05-.09-1-1.06-.71-1.83a39.59,39.59,0,0,0,2.32-17.86C7173.84,7176.83,7176.38,7178.91,7177.06,7177.73Z" transform="translate(-6987.5 -7038.8)" fill="#e7e6e7"/><path d="M7153,7191.58l.2-.17-.06-.24c1.66-2.49,2.54-5.33,3.6-8.07.71-1.83,3-4.47-2.52-4.53,3.32-1.55,5.78-.93,8.18-.89.2,0,.53.37.58.62a.59.59,0,0,1-.77.72c-2.88-.75-2.69,1.58-3.33,3.18q-2.19,5.51-4.53,10.94c-.41,1-1,2.59-2.15,2-1.59-.83.62-1.65.56-2.63A3.54,3.54,0,0,1,7153,7191.58Z" transform="translate(-6987.5 -7038.8)" fill="#e3e3e4"/><path d="M7113.31,7240.53c-3,0-3.54-2.13-3.61-4.41-.08-2.78,2.64-1.77,3.63-1.81,2.84-.13,2.39,3,2.94,4.64S7114.37,7240,7113.31,7240.53Z" transform="translate(-6987.5 -7038.8)"/><path d="M7119.82,7226.58a.33.33,0,0,1,.05-.53,3,3,0,0,1,4-1c1.88.9,3.69,1.88,3.43,4.44l0,0a39.48,39.48,0,0,0-4.61-.08C7120.48,7229.6,7119.63,7228.67,7119.82,7226.58Z" transform="translate(-6987.5 -7038.8)"/><path d="M7178.78,7225.37l-.66-1.53.21-3.62c.12-1.89.48-3.95-2.63-3.36-.52.1-1.2-.11-1.05-.85.06-.28.6-.56,1-.66,3.63-1,4.64-.29,4.61,3.42C7180.22,7221.06,7180.32,7223.4,7178.78,7225.37Z" transform="translate(-6987.5 -7038.8)" fill="#e6e6e8"/><path d="M7127.82,7236.18c.69,1.49,1.19,2.58,0,3.56a.92.92,0,0,1-.87-.16C7126.1,7238.35,7126.67,7237.37,7127.82,7236.18Z" transform="translate(-6987.5 -7038.8)"/><path d="M7137.67,7254.32l.11-1.09c4.09.58.36,2.19.19,3.35Z" transform="translate(-6987.5 -7038.8)"/><path d="M7132.54,7255.88l.05-2,1.07-1.4a5.89,5.89,0,0,1,.68,1.44C7134.54,7255.25,7133.29,7255.35,7132.54,7255.88Z" transform="translate(-6987.5 -7038.8)"/><path d="M7219.35,7139.26a2.44,2.44,0,0,1,0,.47,4.51,4.51,0,0,1-2,5.48c-2,.9-4.14.87-6.26,1-1.68-.24-2.3-1.54-2.83-2.9s-.95-2.49-2.51-2.74c-2-3.1-2-3.34,1.46-4.24a2.32,2.32,0,0,1,1.37-.26c.68,2.34,1.55.44,2.35.09a3,3,0,0,1,1.89-.06C7215,7137.13,7217.48,7137.54,7219.35,7139.26Z" transform="translate(-6987.5 -7038.8)" fill="#0b0d10"/><path d="M7217.36,7144.62c1.85-1.15,1.07-3.36,2-4.89,2.5.9,1.94,3.85,3.59,5.44.56.54-.65,1.74-1.89,1.2-1.46-.65-2.52.06-3.6.86-.62.27-1.31.44-1.49-.42C7215.73,7145.72,7216.43,7145.06,7217.36,7144.62Z" transform="translate(-6987.5 -7038.8)" fill="#dcdfe1"/><path d="M7206.14,7140.49c.67-.09,1.61-3,2,.25a8.26,8.26,0,0,0,2.59,5c.31,1-.44,1.09-1.09,1.26-1.83-.08-3-1.2-4.18-2.45-.67-1.71-3.13-2.94-1.42-5.29C7205.35,7138.6,7205,7140.86,7206.14,7140.49Z" transform="translate(-6987.5 -7038.8)" fill="#5c5e60"/><path d="M7209.38,7146.52c.53-.11,1.1-.15,1.34-.77,2.11-1,4.55,0,6.64-1.13,0,.87-2,1.8.08,2.61-2.17,1-4.33,2.08-6.76.8C7210.56,7147.26,7209,7147.73,7209.38,7146.52Z" transform="translate(-6987.5 -7038.8)" fill="#abadb0"/><path d="M7194.74,7120c.38.72,1.38,1,1.45,1.93a1.17,1.17,0,0,1-1.24.29c-3.4-.31-2.74,1.72-2.15,3.71-.31,2.19-1.33,1.69-2.15.42s-1.53-2.82-.62-4.57C7191.11,7119.7,7192.82,7119.68,7194.74,7120Z" transform="translate(-6987.5 -7038.8)" fill="#adafb1"/><path d="M7208.71,7136.52l-1.08.16c-.75.27-1-.05-.89-.76,3.16-1.43,6.46-2,9.77-.84,1.4.5,3.1,1.3,2.8,3.44-2.3-.33-4.16-2.22-6.66-1.83l-1.87-.07C7210.06,7137.23,7209.43,7136,7208.71,7136.52Z" transform="translate(-6987.5 -7038.8)" fill="#e2e3e5"/><path d="M7206.74,7135.92l.89.76c-2.46.5-3.1,1.72-1.49,3.81-.43.89-.43.89-.81.41s-.87-1.09-1.3-1.63a6.69,6.69,0,0,0-2.36-1.74c-.66-.33-2-.49-1.26-1.76a1.64,1.64,0,0,1,2.56-.52A4.77,4.77,0,0,0,7206.74,7135.92Z" transform="translate(-6987.5 -7038.8)" fill="#cececf"/><path d="M7202.87,7117.92c.81-2.74,2.71-2.27,4.45-1.27a13.6,13.6,0,0,1,2.68,2.68c-.06,1,.6,2.17-.55,3.24-1.71-1,.14-4.22-2.63-4.49C7205.49,7118.36,7204.14,7119.19,7202.87,7117.92Z" transform="translate(-6987.5 -7038.8)" fill="#cececf"/><path d="M7212.65,7136.69c2.85-1.69,4.64.49,6.66,1.83,0,.24,0,.49,0,.74A19.46,19.46,0,0,1,7212.65,7136.69Z" transform="translate(-6987.5 -7038.8)" fill="#5a5a5e"/><path d="M7202.87,7117.92l3.95.16c-1,.8-2.43,1.24-2.17,3.05.1.7-.74,1.13-1.35,1-1.19-.2-.45-1.17-.54-1.82C7202.8,7119.54,7202.83,7118.73,7202.87,7117.92Z" transform="translate(-6987.5 -7038.8)" fill="#808184"/><path d="M7231,7144.16c-1.71,2-2.87,3.46-3.42,5.36C7226.53,7146.62,7227.11,7145.52,7231,7144.16Z" transform="translate(-6987.5 -7038.8)" fill="#acafb1"/><path d="M7240,7183.32l0-.08c-.23.59-.47,1.18-.71,1.77-.56-1.08-1.59-1.27-2.65-1.55-.62-.17-1.78-.24-1.41-1.32.32-.89,1.32-.42,2-.49C7238,7182.44,7239.47,7182,7240,7183.32Z" transform="translate(-6987.5 -7038.8)" fill="#a5a5a9"/><path d="M7209.38,7146.52l1.3,1.51c-2.48-.06-4.82-.31-5.23-3.47C7207.07,7144.6,7208,7146.09,7209.38,7146.52Z" transform="translate(-6987.5 -7038.8)" fill="#cdced1"/><path d="M7192.8,7126c-1-1.17-1.79-2.25-.45-3.83.93-1.09,1.58-1,2.46-.16a2.24,2.24,0,0,1-.65.65A4.21,4.21,0,0,0,7192.8,7126Z" transform="translate(-6987.5 -7038.8)" fill="#27292c"/><path d="M7235.69,7187.73c-.32.34,1.4,1-.11,1-.44,0-.87-.85-1.61-.64-.35-.44-1.54-.8-1-1.27C7234,7186,7234.7,7187.6,7235.69,7187.73Z" transform="translate(-6987.5 -7038.8)" fill="#ececee"/><path d="M7194.16,7122.62c0-.45.28-.59.65-.65h1.38l1.32,2C7195.77,7125.07,7195.58,7122.34,7194.16,7122.62Z" transform="translate(-6987.5 -7038.8)" fill="#909394"/><path d="M7181.94,7137.87a11.17,11.17,0,0,1,3.57-4c.23.21.68.57.66.59-1.14,1.57-2.07,3.47-3.58,4.54S7181.87,7138.46,7181.94,7137.87Z" transform="translate(-6987.5 -7038.8)" fill="#89898a"/><path d="M7184.86,7141.88c-.48,0-1.22.62-1.38-.14-.3-1.37,1-1.91,1.86-2.34s.81.57.92,1.13C7186.48,7141.69,7185.63,7141.74,7184.86,7141.88Z" transform="translate(-6987.5 -7038.8)" fill="#b7b7b8"/><path d="M7179.69,7150.89c-.48-1.85.4-2.75,1.63-3.72C7181.83,7149,7180.9,7149.83,7179.69,7150.89Z" transform="translate(-6987.5 -7038.8)" fill="#aeadb1"/><path d="M7184.86,7141.88l1.4-1.35a7.76,7.76,0,0,1,.89-.19c.3,1-.3,1.61-1,2.11S7184.93,7142.89,7184.86,7141.88Z" transform="translate(-6987.5 -7038.8)"/><path d="M7244.65,7174.57l-4.38-5.2C7243.91,7169.59,7244.43,7172,7244.65,7174.57Z" transform="translate(-6987.5 -7038.8)" fill="#aaaaad"/><path d="M7154.49,7248.41c-.35-2.57-.61-4.6-.92-6.63s-.67-3.81-1-5.76C7157,7237.23,7158.28,7244,7154.49,7248.41Z" transform="translate(-6987.5 -7038.8)" fill="#141316"/><path d="M7167.06,7246.13c-1.07-3.91-2.09-7.67-3.18-11.64A7.29,7.29,0,0,1,7167.06,7246.13Z" transform="translate(-6987.5 -7038.8)" fill="#121114"/><path d="M7120.54,7254.64c-1.32-.32-1.1-2.42-2.31-1.81s-.12,1.92.08,2.9c.12.64.57,1.43-.2,1.75-.94.37-1.34-.43-1.56-1.23a5,5,0,0,1-.4-1.6,85,85,0,0,1,3.89-18c.19-.6.69-1.27,1.48-1s.76,1,.9,1.64C7123.71,7243.16,7122.34,7248.8,7120.54,7254.64Z" transform="translate(-6987.5 -7038.8)" fill="#09080b"/><path d="M7211.93,7139.77a1.65,1.65,0,0,1-1.82,1.4c-1,0-1.54-.57-1.32-1.44a1.51,1.51,0,0,1,1.85-1C7211.27,7138.9,7211.87,7139.2,7211.93,7139.77Z" transform="translate(-6987.5 -7038.8)" fill="#e5e5e9"/><path d="M7208.71,7136.52c.75-1.24,1.39-.14,2.07.1-1,1.21-1,1.21-2.68,1.65C7207.45,7137.39,7209.27,7137.37,7208.71,7136.52Z" transform="translate(-6987.5 -7038.8)" fill="#9899a0"/></svg>