<svg xmlns="http://www.w3.org/2000/svg" xmlns:xlink="http://www.w3.org/1999/xlink" width="436.85" height="360.26" viewBox="0 0 436.85 360.26"><defs><linearGradient id="a" y1="180.13" x2="436.85" y2="180.13" gradientUnits="userSpaceOnUse"><stop offset="0" stop-color="#fff"/><stop offset="0" stop-color="#f7f9fb"/><stop offset="0" stop-color="#e0e8ef"/><stop offset="0" stop-color="#bacddc"/><stop offset="0" stop-color="#86a8c2"/><stop offset="0" stop-color="#4479a1"/><stop offset="0" stop-color="#00487f"/><stop offset="0.21" stop-color="#04697a"/><stop offset="0.67" stop-color="#0ebe6e"/><stop offset="1" stop-color="#15ff65"/><stop offset="1" stop-color="#f7d135"/></linearGradient></defs><rect width="436.85" height="360.26" rx="12" fill="url(#a)"/><polygon points="159.49 146.9 91.49 146.9 52.86 169.37 37.88 202.73 36.52 296.91 55.83 305.91 156.69 302.84 159.49 146.9" fill="#f7d135"/><path d="M308.39,371.21C321.67,306.7,382.32,304,382.32,304h48.84v12.14l-54.35.7s-50,5.07-57.85,63.33c0,63,0,73,0,73s-.36,8.59,13.42,8c13.67,0,98.53-.16,98.53-.16l.25-144.86V473.43H417.77c0-.77-83.84.53-83.83,1.29-26.55,1-26.83-22.83-26.83-22.83S307,434.83,308.39,371.21Z" transform="translate(-278.51 -164.6)" fill="#61286e"/><path d="M335.82,380.75l.51,9.46,81,0V331.34h-44A39.34,39.34,0,0,0,347,343.66C338.72,352.56,335,365,335.82,380.75Zm37.73-39.41h33.78v38.85l-61.53,0C343.74,342.05,373.55,341.34,373.55,341.34Z" transform="translate(-278.51 -164.6)" fill="#62296c"/><path d="M431.16,473.43H549l84.78.14c21.21,1.35,29.27-7.1,30.82-20.39v-43H431.16Z" transform="translate(-278.51 -164.6)" fill="#61286e"/><polygon points="164.58 140.06 152.65 139.43 152.65 308.83 164.57 308.83 164.58 140.06" fill="#61286e"/><circle cx="97.23" cy="302.47" r="42.39" fill="#61286e"/><circle cx="97.23" cy="302.47" r="31.97" fill="#a2a1a3"/><circle cx="97.23" cy="302.47" r="23.12" fill="#5f276d"/><circle cx="97.23" cy="302.47" r="9.39" fill="#a2a1a3"/><path d="M652.62,410.19l0,41.82s.71,8.58-7,8.78c-114.93.56-201.49.26-201.49.26V411.74Z" transform="translate(-278.51 -164.6)" fill="#fd4973"/><circle cx="312.08" cy="302.47" r="42.39" fill="#61286e"/><circle cx="312.08" cy="302.47" r="31.97" fill="#a2a1a3"/><circle cx="312.08" cy="302.47" r="23.12" fill="#5f276d"/><circle cx="312.08" cy="302.47" r="9.39" fill="#a2a1a3"/><polygon points="386.09 245.6 152.65 245.6 152.4 257.5 386.16 257.5 386.09 245.6" fill="#61286e"/><path d="M464.43,334.87a33.91,33.91,0,0,0,3.63,26.62l4.88,6.14c9.12,7.26,15.36,9.56,25.3,9.17-.66-1.54-1.27-3-1.89-4.4-.78-2.89-2.71-4.2-5.66-4.13a.72.72,0,0,1-.25,0c-10.16-2.68-16.7-9.09-18.69-19.39-1.86-9.7,1.18-17.94,9.1-24.15,1.64-1,3.36-2,4.88-3.14a4.52,4.52,0,0,0,1.76-2.58,51.69,51.69,0,0,0,.08-6.37c-4.58,1-8.38,3.33-12.08,5.87A35.94,35.94,0,0,0,464.43,334.87Z" transform="translate(-278.51 -164.6)" fill="#c92776"/><path d="M574,253.94c-1.34,2-1.6,4,.21,5.74,3.74,3.6,3.12,5.28.78,9.34-.46.8-1,1.58-1.44,2.36-.17.48-.33,1-.52,1.42-2.36,5.85-1.2,11.18,3.59,15.37a5.21,5.21,0,0,0,3.59,1.3c1.12-.12,2.8-1.16,3-2.09.32-1.35-.26-3-.79-4.43a55.09,55.09,0,0,0-2.59-5.15c.73-1.7,1.48-3.4,2.17-5.11,1-2.35,1.86-4.72,2.78-7.08a13.71,13.71,0,0,0-4.16-10.71C578.41,252.48,577,252.27,574,253.94Z" transform="translate(-278.51 -164.6)" fill="#c92776"/><path d="M578.61,397.77H532.13c-3.31,0-6.63,0-9.94-.2a7.2,7.2,0,0,1-3.85-1.39c-7.19-5.83-12.31-13.3-16.59-21.41a107.25,107.25,0,0,1-9.19-33.68c-.24-2.19-.5-4.38-.75-6.57q.26-13,.49-26c.35-2.6.76-5.19,1-7.79.14-1.38.7-1.9,2.09-1.88,2.88.05,5.76,0,8.64-.08h102c.58,2.79,1.1,5.27,1.62,7.76q.3,10.19.61,20.37l-1.53,19.4q-1.71,7.61-3.43,15.22l-4.41,11.8-6.25,10.83-7,8.57Zm-72.09-57.11c.46,7.81,2.87,15.09,5.33,22.39.19.56.27,1.3.67,1.62.83.64,1.93,1.57,2.76,1.43,1.51-.26,1.62-1.57,1.17-3-1.64-5.26-3.62-10.46-4.62-15.84-1.36-7.22-1.93-14.58-2.84-21.89,0-.75.05-1.5,0-2.25,0-1.61-.34-3.27-2.33-3.14s-2.3,1.64-1.9,3.35C505.39,329.09,506.18,334.86,506.52,340.66Z" transform="translate(-278.51 -164.6)" fill="#c92776"/><path d="M526.52,270.71c2.68-5.87,1.92-11.16-2.66-15.84-1.44-1.47-2.93-2.63-5.13-1.72s-2.6,2.71-2.45,4.81c.38.56.72,1.15,1.15,1.67,3.44,4.13,3.45,4.59.87,9.4a35.57,35.57,0,0,0-2.63,5.76,13,13,0,0,0,5.08,14.15,3.72,3.72,0,0,0,5.08-.55c1.41-1.46,1.83-3.56.35-4.82C520.78,279,523.85,274.92,526.52,270.71Z" transform="translate(-278.51 -164.6)" fill="#c92776"/><path d="M544.83,288.56c1.58-2.32,1.21-4.31-.75-6.31-2.71-2.77-2.73-4-1-7.44,1.39-2.86,2.64-5.79,4-8.69a13.77,13.77,0,0,0-4.25-11.26c-2.61-2.62-4-2.72-7-.4-1.1,2.3-.46,4.15,1.26,5.93,2.58,2.65,2.61,3.89,1,7.23-1.39,2.86-2.63,5.81-3.93,8.72a13.67,13.67,0,0,0,4.08,11.26C540.48,290,541.86,290.22,544.83,288.56Z" transform="translate(-278.51 -164.6)" fill="#c92776"/><path d="M529.08,410.19h49.36v-8.41h-57v8.41Z" transform="translate(-278.51 -164.6)" fill="#c92776"/><path d="M564.23,283.48c-4.19-4-4.21-4.88-1.55-10.07A81.91,81.91,0,0,0,566,265.1a13.72,13.72,0,0,0-4.19-10.17c-2.29-2.43-3.61-2.65-6.63-1-1.62,2.33-1.23,4.35.71,6.38,2.7,2.83,2.8,4,1,7.48-.83,1.57-1.74,3.1-2.62,4.65-2.29,5.7-1.36,10.78,2.94,15.22,2.1,2.17,3.74,2.58,5.85,1.37C565.36,287.63,565,285.59,564.23,283.48Z" transform="translate(-278.51 -164.6)" fill="#c92776"/><rect x="454.59" y="428.06" width="82.21" height="25.53" transform="translate(712.88 717.06) rotate(-180)" fill="#c92776"/><polygon points="128.82 176.75 109.18 176.75 90.62 215.61 128.82 215.59 128.82 176.75" fill="#eaea2a"/><rect x="617.13" y="308.27" width="57.71" height="8.68" transform="translate(1013.46 460.62) rotate(-180)" fill="#61286e"/><rect x="618.14" y="326.71" width="74.92" height="8.68" transform="translate(1032.68 497.5) rotate(-180)" fill="#61286e"/><rect x="618.14" y="345.14" width="56.71" height="8.68" transform="translate(1014.47 534.37) rotate(-180)" fill="#61286e"/><rect x="617.13" y="382.02" width="57.71" height="8.68" transform="translate(1013.46 608.13) rotate(-180)" fill="#61286e"/><rect x="617.06" y="363.58" width="75.99" height="8.68" transform="translate(1031.61 571.25) rotate(-180)" fill="#61286e"/><circle cx="429.01" cy="166.74" r="4.94" fill="#61286e"/><circle cx="428.16" cy="206.66" r="5.26" fill="#61286e"/><text transform="translate(17.02 59.23)" font-size="46.3" fill="#fff" font-family="Spantaran" letter-spacing="0.05em">E<tspan x="31.79" y="0" letter-spacing="0em">XPRESS COFFEE</tspan></text></svg>