<svg xmlns="http://www.w3.org/2000/svg" xmlns:xlink="http://www.w3.org/1999/xlink" width="299.23" height="299.23" viewBox="0 0 299.23 299.23"><defs><mask id="a" x="276.78" y="166.57" width="7.37" height="7.19" maskUnits="userSpaceOnUse"><g transform="translate(-6987.5 -7038.8)"><polygon points="7264.28 7205.36 7271.65 7205.36 7271.65 7212.55 7264.28 7212.55 7264.28 7205.36" fill="#fff" fill-rule="evenodd"/></g></mask><mask id="b" x="246.08" y="103.23" width="27.17" height="24.33" maskUnits="userSpaceOnUse"><g transform="translate(-6987.5 -7038.8)"><polygon points="7233.58 7142.02 7260.75 7142.02 7260.75 7166.35 7233.58 7166.35 7233.58 7142.02" fill="#fff" fill-rule="evenodd"/></g></mask><mask id="c" x="242.99" y="134.12" width="29" height="41.41" maskUnits="userSpaceOnUse"><g transform="translate(-6987.5 -7038.8)"><polygon points="7230.49 7172.92 7259.49 7172.92 7259.49 7214.33 7230.49 7214.33 7230.49 7172.92" fill="#fff" fill-rule="evenodd"/></g></mask><mask id="d" x="66.97" y="134.12" width="29" height="41.41" maskUnits="userSpaceOnUse"><g transform="translate(-6987.5 -7038.8)"><polygon points="7054.47 7172.92 7083.47 7172.92 7083.47 7214.33 7054.47 7214.33 7054.47 7172.92" fill="#fff" fill-rule="evenodd"/></g></mask><mask id="e" x="100.59" y="133.1" width="30.43" height="42.43" maskUnits="userSpaceOnUse"><g transform="translate(-6987.5 -7038.8)"><polygon points="7088.09 7171.9 7118.52 7171.9 7118.52 7214.33 7088.09 7214.33 7088.09 7171.9" fill="#fff" fill-rule="evenodd"/></g></mask></defs><rect width="299.23" height="299.23" fill="none"/><g mask="url(#a)"><path d="M7267.44,7208.79h.39c.45,0,.83-.15.83-.52s-.25-.55-.77-.55a1.44,1.44,0,0,0-.45.05Zm0,2h-.83v-3.57a8.9,8.9,0,0,1,1.38-.11,1.94,1.94,0,0,1,1.22.28.88.88,0,0,1,.37.76.93.93,0,0,1-.74.86v0c.35.11.53.39.63.87a2.75,2.75,0,0,0,.27.87h-.88a2.68,2.68,0,0,1-.28-.87c-.07-.37-.29-.54-.74-.54h-.4Zm-2.21-1.85a2.78,2.78,0,0,0,2.8,2.86,2.73,2.73,0,0,0,2.73-2.84,2.77,2.77,0,1,0-5.53,0Zm6.45,0a3.69,3.69,0,1,1-3.65-3.59,3.61,3.61,0,0,1,3.65,3.59Z" transform="translate(-6987.5 -7038.8)" fill="#fff" fill-rule="evenodd"/></g><g mask="url(#b)"><path d="M7245.43,7150.14a21.94,21.94,0,0,1-5.68,12.1,16.17,16.17,0,0,1-6.17,4.11h4.75c8.7,0,13-1.39,16-4.42,5.36-5.56,5.28-11.66,6.43-19.91h-8c-2,0-5.95.11-7.28,8.12" transform="translate(-6987.5 -7038.8)" fill="#e20714" fill-rule="evenodd"/></g><path d="M7167.22,7199a125,125,0,0,1,5.25-16.09,90,90,0,0,1,5.59,16.09Zm12.65-26.08h-12.31c-5.13,9.34-9.24,23.43-12.68,40.53h9.54c.33-2.42.75-5,1.33-7.65h13.87c.57,2.66,1.07,5.3,1.49,7.65h11.7c-3.18-14.74-8.23-31.21-12.94-40.53Z" transform="translate(-6987.5 -7038.8)" fill="#fff" fill-rule="evenodd"/><path d="M7212,7166.35H7047.32v46.37c-.85.51-3.64.74-5.58.74-9,0-11.73-6.32-12.41-7.6l-16.82-30.95v38.54h-9.92v-54.27a17.49,17.49,0,0,1,5.57-.76c6.55,0,8.92,1.65,12.42,7.93l16.9,31.52V7158.8h188.41c0,4.9-7.89,7.55-13.92,7.55" transform="translate(-6987.5 -7038.8)" fill="#fff" fill-rule="evenodd"/><g mask="url(#c)"><path d="M7250.38,7206.67c-4.13,0-6.64-.35-7.92-2.24-1.13-1.63-1.2-4.4-1.2-7.57h15.58v-7.66h-15.58v-8.6h18.07v-7.68h-28.84V7197c0,5.68.95,10.76,3.35,13.18,3.12,3,8.44,4.12,15.5,4.12,3.7,0,7.67-.6,10.15-1.81v-7.15a32.51,32.51,0,0,1-9.11,1.3" transform="translate(-6987.5 -7038.8)" fill="#fff" fill-rule="evenodd"/></g><g mask="url(#d)"><path d="M7066.43,7204.43c-1.12-1.63-1.21-4.4-1.21-7.58h15.59v-7.65h-15.59v-8.6h18.09v-7.68h-28.84V7197c0,5.68.93,10.76,3.35,13.17,3.1,3,8.43,4.13,15.5,4.13,3.7,0,7.65-.6,10.15-1.81v-7.15a32.63,32.63,0,0,1-9.12,1.3c-4.12,0-6.63-.35-7.92-2.24" transform="translate(-6987.5 -7038.8)" fill="#fff" fill-rule="evenodd"/></g><g mask="url(#e)"><path d="M7098,7182.63c.58-2.82,3.42-3,6.27-3a38.64,38.64,0,0,1,11.62,1.88v-7.31c-1.73-1-6-2.32-12.13-2.32-4.92,0-9.56.68-13,4-3.18,3-3.87,13.43-.34,17.13,2.58,2.7,8.21,4.18,12.48,5.65,1.72.59,5.23,1.4,5.06,4.37-.21,3.76-3.42,3.67-6.27,3.67a46,46,0,0,1-12.47-2v7.41c2,1.11,6.1,2.23,12.64,2.23,4.48,0,9.9-.86,13.09-3.27,4.13-3.18,4.86-13.06,1-17.48-2.61-3-9.39-4.46-13.85-6.29-2.69-1.11-4.76-1.54-4.12-4.66" transform="translate(-6987.5 -7038.8)" fill="#fff" fill-rule="evenodd"/></g><path d="M7136.23,7204.52c-1.21-1.81-1.55-5.51-1.55-11.37s.34-9.47,1.55-11.37c1.11-1.71,4-2.13,7-2.13a24.06,24.06,0,0,1,8.1,1.28v-7.23a21.45,21.45,0,0,0-8.87-1.73c-6,0-11.87.86-15.14,4.23-3.1,3.19-4.13,9.89-4.13,16.95s1,13.69,4.13,16.88c3.27,3.44,9.19,4.3,15.14,4.3a19.46,19.46,0,0,0,8.09-1.46l1.64-7.5a27.81,27.81,0,0,1-9,1.3c-3,0-5.86-.42-7-2.15" transform="translate(-6987.5 -7038.8)" fill="#fff" fill-rule="evenodd"/><path d="M7196.82,7207.62c0,5.93,5,6.71,10.78,6.71v-17.47h16.52v-7.66H7207.6v-8.6h18.08v-7.68h-28.86Z" transform="translate(-6987.5 -7038.8)" fill="#fff" fill-rule="evenodd"/></svg>