<svg xmlns="http://www.w3.org/2000/svg" width="299.23" height="299.23" viewBox="0 0 299.23 299.23"><circle cx="149.62" cy="149.62" r="149.62" fill="#fff"/><path d="M7144.66,7038.8c4.8.59,9.63,1.07,14.41,1.8,35.26,5.32,64.91,21.25,88.89,47.55,19.9,21.8,32.07,47.47,36.88,76.58.94,5.66,1.17,11.43,1.85,17.14.27,2.23-.74,2.65-2.69,2.72-6.45.22-12.21-1.9-17.94-4.57a145.46,145.46,0,0,0-18.05-7.43c-3.64-1.12-7.78-.6-12.4-.85,2.1,4.63,3.78,8.49,5.62,12.27.24.48,1.32.8,2,.77,6-.19,11.48,1.73,16.74,4.48,6.13,3.21,12.11,6.86,19.2,7.63,2.25.24,4.52.32,7.31.51-.28,3.05-.45,6.07-.94,9-.09.53-1.59,1.29-2.31,1.17-4.15-.71-8.42-1.22-12.34-2.65s-7.33-3.91-11.05-5.77c-4.47-2.24-9.14-3.75-14.54-3.2.77,3.44,1.44,6.71,2.28,9.94a2.2,2.2,0,0,0,1.47,1.38c5.75.43,10.62,3,15.37,6,5.73,3.55,11.69,6.33,19.32,5.38-1,3.91-1.79,7.42-2.82,10.87a2.36,2.36,0,0,1-2.09.93,89.22,89.22,0,0,1-10.53-3.55c-4.78-2.09-9.34-4.67-14.1-6.8-1.33-.6-3-.35-4.73-.5v10.06c6.92-.06,11.78,4.24,17.23,7.42,3.18,1.85,6.84,2.87,10.58,4.39-1.18,2.74-2.42,6-4,9a3.19,3.19,0,0,1-3,.93,54.22,54.22,0,0,1-7.45-4.79c-3.54-2.67-7.18-4.88-11.8-5.09-1.92-.09-2.94.33-3.06,2.47a36.63,36.63,0,0,1-.8,4.75c3.93,1.84,7.66,3.24,11,5.26s6.47,4.73,9.93,7.32l-5.87,9.8c-5.73-4-9.8-10.18-17.5-10.8l2.1-8.43c-2.64-.43-5-.73-7.26-1.19a35,35,0,0,1-15.38-7.42c-1-.85-1.5-2.5-2-3.87-1.4-3.86-2.13-8.08-4.13-11.58a81.25,81.25,0,0,0-9.47-12.93c-6.08-7-7.45-14.48-4.54-23.19,2.74-8.2,4.77-16.62,3.81-25.39a46.78,46.78,0,0,0-16.77-31.46,16.72,16.72,0,0,0-1.79-1c1.5,2.21,2.51,3.71,3.55,5.2,9.47,13.68,12.14,28.35,6.73,44.33a124.38,124.38,0,0,0-3.4,13.22,19.77,19.77,0,0,0,3,15.91c3.77,5.47,7.74,10.8,11.6,16.21,4.92,6.9,5.41,14.29,2.17,22a69.44,69.44,0,0,1-4,8.29c-1.19,2-.94,3.2.85,4.7,6.73,5.64,14.14,9.84,22.92,11.25,4.42.72,6.23-.1,7.82-4.34,1.11-3,3-3.48,5.19-2,4.05,2.74,7.83,5.89,12,9.06l-7.56,9.29c-3.82-4.09-7.07-8.48-12.78-10.13l-3.12,5.66a70.1,70.1,0,0,1,5.92,4.5,55.91,55.91,0,0,1,4.49,5.22l-7.8,8.52-8.58-9.06-4,5,6.93,8.36-10.76,8c-1.89-8.69-7.56-14.82-12.16-21.57-5.21-7.64-6.36-11.62-5.66-19.72-2.31,2-4.43,7.28-3.46,11.15a76.37,76.37,0,0,0,5,13.52c2.09,4.47,5.09,8.52,7.22,13,3.44,7.21,3.19,7.56-3.66,11.21-.6.32-1.23.59-2.23,1.06a25.45,25.45,0,0,0-.93-4.36c-2.26-5.59-4.59-11.15-7-16.66-1.69-3.8-3.7-7.45-5.38-11.26a18.71,18.71,0,0,1,.71-17.19c2.61-4.78,5.55-9.38,8.22-14.13a80.06,80.06,0,0,0,4.25-8.49,20.92,20.92,0,0,0-1.55-19.93c-1.77-2.87-3.78-5.58-5.75-8.31q-2.52-3.49-5.2-6.88c-5.31-6.73-6.19-14.14-3.6-22.16,2-6.22,4.48-12.35,5.73-18.72,3.43-17.42-1.91-32.06-15.28-43.74a6.28,6.28,0,0,0-3.26-1.52c1.17,1.62,2.35,3.23,3.51,4.84,9.95,13.77,11.75,28.59,6.08,44.55-2.21,6.22-4.12,12.59-5.73,19s.24,12.59,4,18c2.29,3.36,4.87,6.51,7.29,9.78,1.23,1.67,2.46,3.35,3.61,5.09,4.14,6.3,4.88,13,1.51,19.76-2.6,5.21-6,10-8.72,15.18a96.41,96.41,0,0,0-6.3,14c-1.66,4.93-.07,9.86,2.06,14.4,2.35,5,5.34,9.75,7.52,14.83s3.67,10.39,5.44,15.62c.54,1.58,0,2.6-1.64,3.17-2.59.91-5.13,2-8,3.08.23-9-3.35-16.51-7.15-24-2.17-4.23-4.35-8.46-6.33-12.78a21.29,21.29,0,0,1,.92-20.54c2.69-4.62,5.69-9.06,8.41-13.67a80.23,80.23,0,0,0,4.94-9.46,20.59,20.59,0,0,0-1.76-20.16,124.69,124.69,0,0,0-8.32-11.22c-7.07-8.52-8.45-17.91-4.68-28.13,1.68-4.55,3.67-9,5.51-13.47,7.54-18.38,3.35-37.45-11-50.17-1.06-.94-2.28-1.72-3.43-2.57l-.68.53a20.55,20.55,0,0,0,1.38,2.53c10.53,14.39,12.48,29.82,5.65,46.33-2.57,6.22-5.31,12.39-7.5,18.74-3.38,9.81-1.64,19,4.58,27.25,2.26,3,4.61,6,6.84,9,5.39,7.34,6.13,15.16,1.81,23.18-2.58,4.78-5.7,9.28-8.54,13.93-1.55,2.53-3.13,5-4.52,7.68a24,24,0,0,0-1,21.51c2.41,5.64,5.21,11.12,7.81,16.68,2.91,6.22,5.47,12.53,5.19,19.62-.08,2.05-.51,3.29-2.83,3.59-2.53.32-5,1-8.11,1.72,0-3.93.71-7.74-.16-11.15a164.94,164.94,0,0,0-6.34-18.47c-1.53-4-3.59-7.72-5.36-11.6a22.89,22.89,0,0,1,1.23-22.2c2.77-4.69,5.87-9.19,8.69-13.85a85.71,85.71,0,0,0,5.29-9.62c3.1-7,2.39-13.74-1.87-20.06-1.72-2.55-3.64-4.95-5.52-7.39-3.18-4.12-5.76-8.49-6.58-13.78-.48-3.07-2.42-4.21-5.44-3.18a32.58,32.58,0,0,1-21.85,0c-3.34-1.14-4.86-.14-5.5,3.31a30.34,30.34,0,0,1-6.13,13.05c-1.94,2.51-4,5-5.75,7.59-4.54,6.55-5.56,13.64-1.92,20.8,2.86,5.63,6.48,10.87,9.71,16.32,1.91,3.24,3.88,6.46,5.52,9.84a20,20,0,0,1,.66,16.72c-1.57,4-3.31,7.85-5.15,11.69-6.85,14.25-7.45,16.53-7.91,31.81a87.7,87.7,0,0,1-8.89-2,3.5,3.5,0,0,1-1.7-2.91c.67-4.67,1.15-9.47,2.72-13.87a107,107,0,0,1,7.52-16.14c6.91-12.39,5.88-24-2.43-35.31-2.93-4-5.49-8.26-8-12.52-5.46-9.25-4.75-18.11,2-26.49,1.68-2.09,3.26-4.25,4.93-6.34,7.48-9.35,8.87-19.69,4.74-30.77-2.17-5.84-4.84-11.5-7.15-17.29-6.41-16-4.3-31,5.69-45,.64-.89,1.17-1.86,1.76-2.79l-.62-.62a26.45,26.45,0,0,0-2.75,1.79c-14.85,12.36-19.47,31.87-12.08,50.41,2.48,6.25,5.07,12.49,6.93,18.93a22.19,22.19,0,0,1-3.43,19.55c-2.45,3.48-5,6.92-7.71,10.2-7.91,9.57-8.72,19.62-2.27,30.21,2.42,4,5,7.87,7.43,11.84,1.3,2.1,2.54,4.25,3.71,6.43a21,21,0,0,1,.75,19.45c-2.18,4.78-4.59,9.44-6.94,14.13-3.62,7.2-7.08,14.43-6.55,23.26a94.42,94.42,0,0,1-8.76-3.66c-.72-.38-1.25-2.23-1-3.18a82.91,82.91,0,0,1,3.88-12.11c2.2-5,4.87-9.75,7.53-14.5,5.6-10,5.14-19.64-1-29.2-3.11-4.83-6.15-9.71-9-14.69-5-8.73-4.52-17.2,1.66-25.24,2.24-2.91,4.33-5.94,6.71-8.73,7.3-8.58,8.63-18.2,5.21-28.68q-1.85-5.66-4-11.21c-6.65-17.45-4-33.44,7.53-48,.49-.62,1-1.24,1.46-1.88.08-.11,0-.34,0-1.06a49.55,49.55,0,0,0-5,3.93c-13.67,13.9-17.28,30.18-11.42,48.7,1.79,5.65,3.56,11.32,5.09,17,1.45,5.45-.12,10.46-3.2,14.95-2.86,4.17-6.22,8-8.92,12.26a55.06,55.06,0,0,0-6.18,12.07c-1.8,5.54-.11,11.06,2.55,16.05,3.31,6.2,7,12.19,10.52,18.29a20.37,20.37,0,0,1,.89,19.66c-1,2.16-2,4.32-3,6.44-1.24,2.49-2.71,4.86-3.79,7.41-2.3,5.44-4.4,10.95-6.78,16.93-1.94-1.09-4.49-2.44-6.92-4-.37-.24-.39-1.52-.14-2.14,1.63-4,3.2-8.07,5.14-11.94,2.26-4.51,5.16-8.71,7.26-13.29a18.09,18.09,0,0,0-1.2-18.1c-.27.26-.52.39-.5.48,1,7.62-2.05,13.93-6.3,19.89-2.6,3.63-5.3,7.2-7.6,11-1.72,2.84-2.87,6-4.46,9.44l-10.31-7.66,6.88-8.46c-1.06-1.34-2.25-2.87-3.91-5l-8.38,8.81-8.65-8.24,10.76-10.17-2.85-5.24c-5.59,1.55-8.85,5.89-12.76,10.08l-7.42-9c3.69-3,7-6.23,10.72-8.71s4.56-1.84,6.41,2c1.65,3.43,3.27,4.38,7.09,3.82,9.45-1.38,17.41-5.82,24.3-12.25a3.31,3.31,0,0,0,.34-2.94c-1.62-4-3.7-7.89-5.18-12a18.52,18.52,0,0,1,1.89-17.09,98.66,98.66,0,0,1,8.49-11.83c8-9.14,9.21-19.17,5.55-30.49a88,88,0,0,1-4.31-19.35c-1.05-12,3.7-22.47,10.66-32a6.62,6.62,0,0,0,1.41-2.82,22.44,22.44,0,0,0-2.32,1.76c-14.35,13.79-18.65,30.29-13.43,49.43,1.33,4.86,2.37,9.8,3.31,14.75a11.92,11.92,0,0,1-2.36,9.27c-2.81,4-5.77,7.82-8.64,11.73-4.35,5.93-8.86,11.78-8.58,19.76,0,.67-.82,1.52-1.47,2a36.75,36.75,0,0,1-20,8.36c-.88.08-1.76.22-3,.39l1.87,7.69c-3.23,1.68-6.43,3-9.23,4.92s-5.12,4.33-8,6.87l-5.95-9.94c3.33-2.46,6.53-4.67,9.54-7.1,3.26-2.65,6.77-4.47,11.59-4-.46-2.8-.75-5.21-1.33-7.54-.12-.5-1.32-1-2-1-4.49-.14-8.22,1.81-11.71,4.44-2.44,1.84-5,3.59-7.57,5.2-1.78,1.1-3.28.9-4.13-1.46-1.06-3-2.38-5.85-3.73-9.13,6.3-.09,10.75-3.68,15.63-6.51,3.26-1.9,7.06-2.83,10.56-4.34.79-.34,1.8-1.23,1.87-2,.22-2.54.09-5.12.09-8.57-3.07.67-6.14.89-8.81,2-3.53,1.5-6.64,4-10.14,5.56a78.11,78.11,0,0,1-10.53,3.57,2.56,2.56,0,0,1-2.19-1.23c-1-3.29-1.76-6.66-2.75-10.61,9.29,1.44,16-3.65,23.24-7.45,3.43-1.81,7.43-2.51,11.14-3.8.7-.25,1.65-.81,1.81-1.4.84-3.23,1.47-6.51,2.21-10a24,24,0,0,0-13.4,2.7c-3.65,1.77-7.16,3.83-10.75,5.73a26.65,26.65,0,0,1-13.11,3.3c-2.1,0-3.33-.63-3.29-3.08a70.45,70.45,0,0,0-.6-7.27c2.48-.14,4.87.17,6.94-.49a139.68,139.68,0,0,0,16.06-5.92c5.32-2.43,10.41-6,16.33-5.85,5.17.16,7.07-2.25,8.45-6.39a52.39,52.39,0,0,1,2.66-5.63c.07-.14-.05-.37-.1-.74a29.93,29.93,0,0,0-17.92,1.89c-4.55,1.95-8.92,4.31-13.39,6.44-5.89,2.82-12,4.59-19.22,3.54.32-4.68.43-9.3,1-13.87,3.65-29.17,14.66-55.25,33.64-77.73q36.57-43.34,92.79-52c4.79-.73,9.62-1.21,14.42-1.8Zm-76.87,58.41c1.17,1.62,2,2.6,2.63,3.67,4.36,7.07,8.84,14.09,13,21.28,2.37,4.11,2.14,4.28,6.45,2.27a112.09,112.09,0,0,1,96,.45c2.35,1.12,3.54.82,4.92-1.6,4.49-7.91,9.31-15.64,14-23.43.44-.74.92-1.45,1.67-2.63a50,50,0,0,0-27,9.77l-.84-.62c3.92-7.79,7.83-15.59,11.87-23.63-12.79,1.31-24.09,5.83-33.61,15.07-1.93-5-3.63-9.75-5.59-14.37-.9-2.11-.49-3.39,1.27-4.77,2.57-2,4.92-4.31,7.37-6.49l5.29-4.75c-4.44-.31-8-.94-11.51-.73-6.35.38-10.26-1.82-11.85-8.33-.88-3.62-2.9-6.95-4.67-11-2.55,5.92-4.85,11.07-7,16.28a3.55,3.55,0,0,1-3.67,2.61c-5.5.23-11,.78-16.48,1.2l-.41.66c.74.6,1.5,1.16,2.21,1.79,3.57,3.15,7.18,6.26,10.65,9.51a3.24,3.24,0,0,1,1,2.67c-1.83,5.2-3.88,10.32-6,15.79-9.52-9.21-20.87-13.63-34.19-15.16,5,8,9.3,15.64,12.25,24.82A50.33,50.33,0,0,0,7067.79,7097.21Zm63.62,60.41c-3.32-3.13-6.66-2.25-10.27-1.4a13.38,13.38,0,0,1-6.88-.69c-3.86-1.28-5.63-.51-6.28,3.52a13.63,13.63,0,0,0-.15,3.55c1.37,13.22,7.21,24,18,31.89,7.5,5.49,15.65,5.43,23.2,0,9.33-6.76,14.91-16.06,17.13-27.27a32.31,32.31,0,0,0,0-9.67c-.2-1.81-1.83-3.58-3.85-2.47-3.85,2.11-7.55,1.87-11.43.41-2-.75-3.37.05-4.29,2a42.8,42.8,0,0,1-2.75,4.36,25,25,0,0,1-.7-17.94c.38-1.16,1.73-2.17,2.86-2.89,5.24-3.39,10.91-3.83,16.83-2.16,1,.28,2,.51,3.12.79-1.2-10.83-16.52-20.21-30.83-19.23-13.41.92-26.47,10.39-26.17,19.23a12.53,12.53,0,0,1,2.26-.58c3.71-.27,7.49-1,11.14-.57,3.82.43,7.87,1.91,9.33,5.93A19.17,19.17,0,0,1,7131.41,7157.62Zm-139.47,14.58.12.86c2.72,0,5.65.65,8.14-.12,6.21-1.94,12.27-4.37,18.29-6.88,7.35-3.06,14.79-5.3,22.78-3.09,2.18.61,3.19-.05,4.36-1.7a111.14,111.14,0,0,1,24.88-25.37c.69-.5,1.31-1.08,2.33-1.93-6.18-2.51-12.19-3.66-18.29-2.37-5.9,1.25-11.64,3.26-17.48,4.95a38.53,38.53,0,0,0-14.17-23.41,11.46,11.46,0,0,0-3.13-1.17,17.68,17.68,0,0,0-.78,3c-.36,4.13-.28,8.34-1,12.4-2.23,12.52-8.55,23.12-16.22,33C6998.62,7164.39,6995.22,7168.25,6991.94,7172.2ZM7201.33,7134l1.57,1.09a115.9,115.9,0,0,1,26.35,26.83,4.14,4.14,0,0,0,3.13,1.06c2.26-.1,4.49-.77,6.74-.87,6.42-.26,12.22,2.06,18,4.51,4.82,2.05,9.64,4.13,14.59,5.84a15,15,0,0,0,11-.12c-1.78-2-3.42-3.84-5-5.7-13-15.24-23.36-31.58-22.31-52.79.11-2.22-1.34-2.9-3-1.28-3.26,3.14-6.78,6.24-9.15,10-2.77,4.43-4.43,9.57-6.62,14.51C7226,7131,7214.42,7129,7201.33,7134Zm-74.78,15.4a14.68,14.68,0,0,0-1-2.46c-2.52-3.56-10.5-5.55-14.43-3.65-2.83,1.36-2.93,4-.16,6.35C7115.82,7146.37,7120.93,7148,7126.55,7149.43Zm37.32,0c2.61-2.8,2.31-5.42-.91-6.31a13.31,13.31,0,0,0-12.07,2.08c-.89.68-1.19,2.14-2,3.78C7158.87,7147.28,7158.87,7147.28,7163.87,7149.45Z" transform="translate(-6987.5 -7038.8)" fill="#00623d"/><path d="M7067.79,7097.21a50.33,50.33,0,0,1,27.83,10.29c-2.95-9.18-7.27-16.82-12.25-24.82,13.32,1.53,24.67,5.95,34.19,15.16,2.11-5.47,4.16-10.59,6-15.79a3.24,3.24,0,0,0-1-2.67c-3.47-3.25-7.08-6.36-10.65-9.51-.71-.63-1.47-1.19-2.21-1.79l.41-.66c5.49-.42,11-1,16.48-1.2a3.55,3.55,0,0,0,3.67-2.61c2.12-5.21,4.42-10.36,7-16.28,1.77,4.09,3.79,7.42,4.67,11,1.59,6.51,5.5,8.71,11.85,8.33,3.51-.21,7.07.42,11.51.73l-5.29,4.75c-2.45,2.18-4.8,4.47-7.37,6.49-1.76,1.38-2.17,2.66-1.27,4.77,2,4.62,3.66,9.35,5.59,14.37,9.52-9.24,20.82-13.76,33.61-15.07-4,8-7.95,15.84-11.87,23.63l.84.62a50,50,0,0,1,27-9.77c-.75,1.18-1.23,1.89-1.67,2.63-4.7,7.79-9.52,15.52-14,23.43-1.38,2.42-2.57,2.72-4.92,1.6a112.09,112.09,0,0,0-96-.45c-4.31,2-4.08,1.84-6.45-2.27-4.15-7.19-8.63-14.21-13-21.28C7069.76,7099.81,7069,7098.83,7067.79,7097.21Zm84.95,5.53L7137.25,7091l-15.44,11.79Z" transform="translate(-6987.5 -7038.8)" fill="#fff"/><path d="M7131.41,7157.62a19.17,19.17,0,0,0,.25-13.23c-1.46-4-5.51-5.5-9.33-5.93-3.65-.41-7.43.3-11.14.57a12.53,12.53,0,0,0-2.26.58c-.3-8.84,12.76-18.31,26.17-19.23,14.31-1,29.63,8.4,30.83,19.23-1.12-.28-2.12-.51-3.12-.79-5.92-1.67-11.59-1.23-16.83,2.16-1.13.72-2.48,1.73-2.86,2.89a25,25,0,0,0,.7,17.94,42.8,42.8,0,0,0,2.75-4.36c.92-1.95,2.26-2.75,4.29-2,3.88,1.46,7.58,1.7,11.43-.41,2-1.11,3.65.66,3.85,2.47a32.31,32.31,0,0,1,0,9.67c-2.22,11.21-7.8,20.51-17.13,27.27-7.55,5.47-15.7,5.53-23.2,0-10.75-7.87-16.59-18.67-18-31.89a13.63,13.63,0,0,1,.15-3.55c.65-4,2.42-4.8,6.28-3.52a13.38,13.38,0,0,0,6.88.69C7124.75,7155.37,7128.09,7154.49,7131.41,7157.62Zm16.86,20.85h-22.43C7132.94,7189.2,7142,7189.16,7148.27,7178.47Zm-18.21-8.39c5,2.92,9.77,3.07,14.57-.09C7141.94,7167.36,7132.88,7167.36,7130.06,7170.08Z" transform="translate(-6987.5 -7038.8)" fill="#fff"/><path d="M6991.94,7172.2c3.28-3.95,6.68-7.81,9.83-11.86,7.67-9.87,14-20.47,16.22-33,.72-4.06.64-8.27,1-12.4a17.68,17.68,0,0,1,.78-3,11.46,11.46,0,0,1,3.13,1.17,38.53,38.53,0,0,1,14.17,23.41c5.84-1.69,11.58-3.7,17.48-4.95,6.1-1.29,12.11-.14,18.29,2.37-1,.85-1.64,1.43-2.33,1.93a111.14,111.14,0,0,0-24.88,25.37c-1.17,1.65-2.18,2.31-4.36,1.7-8-2.21-15.43,0-22.78,3.09-6,2.51-12.08,4.94-18.29,6.88-2.49.77-5.42.12-8.14.12Z" transform="translate(-6987.5 -7038.8)" fill="#fff"/><path d="M7201.33,7134c13.09-5,24.64-3.08,35.28,3.1,2.19-4.94,3.85-10.08,6.62-14.51,2.37-3.78,5.89-6.88,9.15-10,1.69-1.62,3.14-.94,3,1.28-1.05,21.21,9.32,37.55,22.31,52.79,1.59,1.86,3.23,3.68,5,5.7a15,15,0,0,1-11,.12c-4.95-1.71-9.77-3.79-14.59-5.84-5.77-2.45-11.57-4.77-18-4.51-2.25.1-4.48.77-6.74.87a4.14,4.14,0,0,1-3.13-1.06,115.9,115.9,0,0,0-26.35-26.83Z" transform="translate(-6987.5 -7038.8)" fill="#fff"/><path d="M7126.55,7149.43c-5.62-1.4-10.73-3.06-15.6.24-2.77-2.37-2.67-5,.16-6.35,3.93-1.9,11.91.09,14.43,3.65A14.68,14.68,0,0,1,7126.55,7149.43Z" transform="translate(-6987.5 -7038.8)" fill="#fff"/><path d="M7163.87,7149.45c-5-2.17-5-2.17-15-.45.85-1.64,1.15-3.1,2-3.78a13.31,13.31,0,0,1,12.07-2.08C7166.18,7144,7166.48,7146.65,7163.87,7149.45Z" transform="translate(-6987.5 -7038.8)" fill="#fff"/><path d="M7152.74,7102.74h-30.93l15.44-11.79Z" transform="translate(-6987.5 -7038.8)" fill="#00623d"/><path d="M7148.27,7178.46c-6.23,10.7-15.33,10.74-22.43,0Z" transform="translate(-6987.5 -7038.8)" fill="#00623d"/><path d="M7130.06,7170.08c2.82-2.72,11.88-2.72,14.57-.09C7139.83,7173.15,7135.11,7173,7130.06,7170.08Z" transform="translate(-6987.5 -7038.8)" fill="#00623d"/></svg>